<svg xmlns="http://www.w3.org/2000/svg" width="64" height="64" viewBox="0 0 64 64" fill="none">
  <mask id="mask0_766_3667" style="mask-type:alpha" maskUnits="userSpaceOnUse" x="0" y="0" width="64" height="64">
    <rect width="64" height="64" fill="#D9D9D9"/>
  </mask>
  <g mask="url(#mask0_766_3667)">
    <path d="M29.3333 47.6002L22.4666 54.3335C21.9777 54.8224 21.3666 55.0668 20.6333 55.0668C19.8999 55.0668 19.2888 54.8002 18.7999 54.2668C18.2666 53.7779 17.9999 53.1668 17.9999 52.4335C17.9999 51.7002 18.2666 51.0668 18.7999 50.5335L29.3333 40.0002V34.6668H23.9999L13.3999 45.2668C12.911 45.7557 12.2999 46.0002 11.5666 46.0002C10.8333 46.0002 10.1999 45.7335 9.66658 45.2002C9.1777 44.7113 8.93325 44.1002 8.93325 43.3668C8.93325 42.6335 9.1777 42.0224 9.66658 41.5335L16.3999 34.6668H7.93325C7.1777 34.6668 6.55547 34.4113 6.06659 33.9002C5.5777 33.3891 5.33325 32.7557 5.33325 32.0002C5.33325 31.2446 5.58881 30.6113 6.09992 30.1002C6.61103 29.5891 7.24436 29.3335 7.99992 29.3335H16.3999L9.66658 22.5335C9.1777 22.0446 8.93325 21.4335 8.93325 20.7002C8.93325 19.9668 9.19992 19.3335 9.73325 18.8002C10.2221 18.3113 10.8333 18.0668 11.5666 18.0668C12.2999 18.0668 12.9333 18.3113 13.4666 18.8002L23.9999 29.3335H29.3333V24.0002L18.7333 13.4668C18.2444 12.9779 17.9999 12.3668 17.9999 11.6335C17.9999 10.9002 18.2666 10.2668 18.7999 9.7335C19.2888 9.24461 19.8999 9.00016 20.6333 9.00016C21.3666 9.00016 21.9777 9.24461 22.4666 9.7335L29.3333 16.4002V8.00016C29.3333 7.24461 29.5888 6.61127 30.0999 6.10016C30.611 5.58905 31.2444 5.3335 31.9999 5.3335C32.7555 5.3335 33.3888 5.58905 33.8999 6.10016C34.411 6.61127 34.6666 7.24461 34.6666 8.00016V16.4002L41.4666 9.7335C41.9555 9.24461 42.5666 9.00016 43.2999 9.00016C44.0332 9.00016 44.6666 9.24461 45.1999 9.7335C45.6888 10.2668 45.9333 10.9002 45.9333 11.6335C45.9333 12.3668 45.6888 12.9779 45.1999 13.4668L34.6666 24.0002V29.3335H39.9999L50.5333 18.8002C51.0221 18.3113 51.6333 18.0668 52.3666 18.0668C53.0999 18.0668 53.7332 18.3335 54.2666 18.8668C54.7555 19.3557 54.9999 19.9668 54.9999 20.7002C54.9999 21.4335 54.7555 22.0446 54.2666 22.5335L47.5999 29.3335H55.9999C56.7555 29.3335 57.3888 29.5891 57.8999 30.1002C58.411 30.6113 58.6666 31.2446 58.6666 32.0002C58.6666 32.7557 58.411 33.3891 57.8999 33.9002C57.3888 34.4113 56.7555 34.6668 55.9999 34.6668H47.5999L54.2666 41.5335C54.7555 42.0224 54.9999 42.6335 54.9999 43.3668C54.9999 44.1002 54.7555 44.7113 54.2666 45.2002C53.7332 45.7335 53.0999 46.0002 52.3666 46.0002C51.6333 46.0002 51.0221 45.7335 50.5333 45.2002L39.9999 34.6668H34.6666V40.0002L45.1999 50.6002C45.6888 51.0891 45.9333 51.7002 45.9333 52.4335C45.9333 53.1668 45.6666 53.8002 45.1333 54.3335C44.6444 54.8224 44.0332 55.0668 43.2999 55.0668C42.5666 55.0668 41.9555 54.8224 41.4666 54.3335L34.6666 47.6002V56.0668C34.6666 56.8224 34.411 57.4446 33.8999 57.9335C33.3888 58.4224 32.7555 58.6668 31.9999 58.6668C31.2444 58.6668 30.611 58.4113 30.0999 57.9002C29.5888 57.389 29.3333 56.7557 29.3333 56.0002V47.6002Z" fill="white"/>
  </g>
</svg>