<svg xmlns="http://www.w3.org/2000/svg" width="64" height="64" viewBox="0 0 64 64" fill="none">
  <mask id="mask0_48_21602" style="mask-type:alpha" maskUnits="userSpaceOnUse" x="0" y="0" width="64" height="64">
    <rect width="64" height="64" fill="#D9D9D9"/>
  </mask>
  <g mask="url(#mask0_48_21602)">
    <path d="M32.0002 58.6665C28.3113 58.6665 24.8446 57.9665 21.6002 56.5665C18.3557 55.1665 15.5335 53.2665 13.1335 50.8665C10.7335 48.4665 8.8335 45.6443 7.4335 42.3998C6.0335 39.1554 5.3335 35.6887 5.3335 31.9998C5.3335 28.3109 6.0335 24.8443 7.4335 21.5998C8.8335 18.3554 10.7335 15.5332 13.1335 13.1332C15.5335 10.7332 18.3557 8.83317 21.6002 7.43317C24.8446 6.03317 28.3113 5.33317 32.0002 5.33317C33.9113 5.33317 35.7557 5.52206 37.5335 5.89984C39.3113 6.27762 41.0224 6.82206 42.6668 7.53317V13.5332C42.6668 14.9554 43.1668 16.1665 44.1668 17.1665C45.1668 18.1665 46.3779 18.6665 47.8002 18.6665H48.0002V20.1998C48.0002 21.2221 48.3779 22.111 49.1335 22.8665C49.8891 23.6221 50.7779 23.9998 51.8002 23.9998H57.4668C57.8668 25.2887 58.1668 26.5887 58.3668 27.8998C58.5668 29.211 58.6668 30.5776 58.6668 31.9998C58.6668 35.6887 57.9668 39.1554 56.5668 42.3998C55.1668 45.6443 53.2668 48.4665 50.8668 50.8665C48.4668 53.2665 45.6446 55.1665 42.4002 56.5665C39.1557 57.9665 35.6891 58.6665 32.0002 58.6665ZM32.0002 46.6665C34.5779 46.6665 36.9557 46.0443 39.1335 44.7998C41.3113 43.5554 43.0668 41.8665 44.4002 39.7332C44.6668 39.1998 44.6446 38.6665 44.3335 38.1332C44.0224 37.5998 43.5557 37.3332 42.9335 37.3332H21.0668C20.4446 37.3332 19.9779 37.5998 19.6668 38.1332C19.3557 38.6665 19.3335 39.1998 19.6002 39.7332C20.9335 41.8665 22.7002 43.5554 24.9002 44.7998C27.1002 46.0443 29.4668 46.6665 32.0002 46.6665ZM22.6668 29.3332C23.7779 29.3332 24.7224 28.9443 25.5002 28.1665C26.2779 27.3887 26.6668 26.4443 26.6668 25.3332C26.6668 24.2221 26.2779 23.2776 25.5002 22.4998C24.7224 21.7221 23.7779 21.3332 22.6668 21.3332C21.5557 21.3332 20.6113 21.7221 19.8335 22.4998C19.0557 23.2776 18.6668 24.2221 18.6668 25.3332C18.6668 26.4443 19.0557 27.3887 19.8335 28.1665C20.6113 28.9443 21.5557 29.3332 22.6668 29.3332ZM41.3335 29.3332C42.4446 29.3332 43.3891 28.9443 44.1668 28.1665C44.9446 27.3887 45.3335 26.4443 45.3335 25.3332C45.3335 24.2221 44.9446 23.2776 44.1668 22.4998C43.3891 21.7221 42.4446 21.3332 41.3335 21.3332C40.2224 21.3332 39.2779 21.7221 38.5002 22.4998C37.7224 23.2776 37.3335 24.2221 37.3335 25.3332C37.3335 26.4443 37.7224 27.3887 38.5002 28.1665C39.2779 28.9443 40.2224 29.3332 41.3335 29.3332ZM53.3335 13.3332H50.6668C49.9113 13.3332 49.2779 13.0776 48.7668 12.5665C48.2557 12.0554 48.0002 11.4221 48.0002 10.6665C48.0002 9.91095 48.2557 9.27762 48.7668 8.7665C49.2779 8.25539 49.9113 7.99984 50.6668 7.99984H53.3335V5.33317C53.3335 4.57762 53.5891 3.94428 54.1002 3.43317C54.6113 2.92206 55.2446 2.6665 56.0002 2.6665C56.7557 2.6665 57.3891 2.92206 57.9002 3.43317C58.4113 3.94428 58.6668 4.57762 58.6668 5.33317V7.99984H61.3335C62.0891 7.99984 62.7224 8.25539 63.2335 8.7665C63.7446 9.27762 64.0002 9.91095 64.0002 10.6665C64.0002 11.4221 63.7446 12.0554 63.2335 12.5665C62.7224 13.0776 62.0891 13.3332 61.3335 13.3332H58.6668V15.9998C58.6668 16.7554 58.4113 17.3887 57.9002 17.8998C57.3891 18.4109 56.7557 18.6665 56.0002 18.6665C55.2446 18.6665 54.6113 18.4109 54.1002 17.8998C53.5891 17.3887 53.3335 16.7554 53.3335 15.9998V13.3332Z" fill="white"/>
  </g>
</svg>