<svg xmlns="http://www.w3.org/2000/svg" width="16" height="16" viewBox="0 0 16 16" fill="none">
  <mask id="mask0_659_2469" style="mask-type:alpha" maskUnits="userSpaceOnUse" x="0" y="0" width="16" height="16">
    <rect width="16" height="16" fill="#D9D9D9"/>
  </mask>
  <g mask="url(#mask0_659_2469)">
    <path d="M7.86665 8.60008L6.26665 9.00008L5.54998 8.46675C5.51665 8.44453 5.42776 8.4223 5.28331 8.40008L5.19998 8.43342C5.09998 8.45564 5.02776 8.51397 4.98331 8.60842C4.93887 8.70286 4.94442 8.79453 4.99998 8.88341L5.76665 10.2167C5.81109 10.2834 5.86665 10.3306 5.93331 10.3584C5.99998 10.3862 6.0722 10.389 6.14998 10.3667L11.8333 8.86675C12 8.8223 12.125 8.71953 12.2083 8.55842C12.2916 8.3973 12.3111 8.23342 12.2666 8.06675C12.2222 7.90008 12.125 7.77508 11.975 7.69175C11.825 7.60841 11.6666 7.58897 11.5 7.63342L9.86665 8.06675L7.38331 5.73341C7.32776 5.67786 7.26109 5.64175 7.18331 5.62508C7.10554 5.60841 7.02776 5.61119 6.94998 5.63341L6.86665 5.65008C6.71109 5.68341 6.60276 5.7723 6.54165 5.91675C6.48054 6.06119 6.48887 6.20008 6.56665 6.33341L7.86665 8.60008ZM2.66665 13.3334C2.29998 13.3334 1.98609 13.2029 1.72498 12.9417C1.46387 12.6806 1.33331 12.3667 1.33331 12.0001V9.75008C1.33331 9.62786 1.3722 9.5223 1.44998 9.43342C1.52776 9.34453 1.62776 9.28897 1.74998 9.26675C2.01665 9.17786 2.23609 9.01675 2.40831 8.78341C2.58054 8.55008 2.66665 8.28897 2.66665 8.00008C2.66665 7.71119 2.58054 7.45008 2.40831 7.21675C2.23609 6.98342 2.01665 6.8223 1.74998 6.73341C1.62776 6.71119 1.52776 6.65564 1.44998 6.56675C1.3722 6.47786 1.33331 6.3723 1.33331 6.25008V4.00008C1.33331 3.63341 1.46387 3.31953 1.72498 3.05841C1.98609 2.7973 2.29998 2.66675 2.66665 2.66675H13.3333C13.7 2.66675 14.0139 2.7973 14.275 3.05841C14.5361 3.31953 14.6666 3.63341 14.6666 4.00008V12.0001C14.6666 12.3667 14.5361 12.6806 14.275 12.9417C14.0139 13.2029 13.7 13.3334 13.3333 13.3334H2.66665Z" fill="white"/>
  </g>
</svg>