<svg xmlns="http://www.w3.org/2000/svg" width="24" height="24" viewBox="0 0 24 24" fill="none">
  <mask id="mask0_617_641" style="mask-type:alpha" maskUnits="userSpaceOnUse" x="0" y="0" width="24" height="24">
    <rect width="24" height="24" fill="#D9D9D9"/>
  </mask>
  <g mask="url(#mask0_617_641)">
    <path d="M11.8 12.9L9.4 13.5L8.325 12.7C8.275 12.6667 8.14167 12.6333 7.925 12.6L7.8 12.65C7.65 12.6833 7.54167 12.7708 7.475 12.9125C7.40833 13.0542 7.41667 13.1917 7.5 13.325L8.65 15.325C8.71667 15.425 8.8 15.4958 8.9 15.5375C9 15.5792 9.10833 15.5833 9.225 15.55L17.75 13.3C18 13.2333 18.1875 13.0792 18.3125 12.8375C18.4375 12.5958 18.4667 12.35 18.4 12.1C18.3333 11.85 18.1875 11.6625 17.9625 11.5375C17.7375 11.4125 17.5 11.3833 17.25 11.45L14.8 12.1L11.075 8.6C10.9917 8.51667 10.8917 8.4625 10.775 8.4375C10.6583 8.4125 10.5417 8.41667 10.425 8.45L10.3 8.475C10.0667 8.525 9.90417 8.65833 9.8125 8.875C9.72083 9.09167 9.73333 9.3 9.85 9.5L11.8 12.9ZM4 20C3.45 20 2.97917 19.8042 2.5875 19.4125C2.19583 19.0208 2 18.55 2 18V14.625C2 14.4417 2.05833 14.2833 2.175 14.15C2.29167 14.0167 2.44167 13.9333 2.625 13.9C3.025 13.7667 3.35417 13.525 3.6125 13.175C3.87083 12.825 4 12.4333 4 12C4 11.5667 3.87083 11.175 3.6125 10.825C3.35417 10.475 3.025 10.2333 2.625 10.1C2.44167 10.0667 2.29167 9.98333 2.175 9.85C2.05833 9.71667 2 9.55833 2 9.375V6C2 5.45 2.19583 4.97917 2.5875 4.5875C2.97917 4.19583 3.45 4 4 4H20C20.55 4 21.0208 4.19583 21.4125 4.5875C21.8042 4.97917 22 5.45 22 6V18C22 18.55 21.8042 19.0208 21.4125 19.4125C21.0208 19.8042 20.55 20 20 20H4Z" fill="#1C1B1F"/>
  </g>
</svg>