<svg xmlns="http://www.w3.org/2000/svg" width="64" height="64" viewBox="0 0 64 64" fill="none">
  <mask id="mask0_48_21612" style="mask-type:alpha" maskUnits="userSpaceOnUse" x="0" y="0" width="64" height="64">
    <rect width="64" height="64" fill="#D9D9D9"/>
  </mask>
  <g mask="url(#mask0_48_21612)">
    <path d="M35.6665 58.2L18.6665 53.4V29.3333H22.9332C23.2443 29.3333 23.5554 29.3667 23.8665 29.4333C24.1776 29.5 24.4887 29.5778 24.7998 29.6667L43.2665 36.5333C43.8887 36.7556 44.3887 37.1556 44.7665 37.7333C45.1443 38.3111 45.3332 38.9111 45.3332 39.5333C45.3332 40.4667 45.0109 41.2222 44.3665 41.8C43.7221 42.3778 42.9776 42.6667 42.1332 42.6667H35.1332C34.9109 42.6667 34.7443 42.6556 34.6332 42.6333C34.5221 42.6111 34.3776 42.5556 34.1998 42.4667L31.1998 41.3333C30.8443 41.2 30.4887 41.2222 30.1332 41.4C29.7776 41.5778 29.5554 41.8222 29.4665 42.1333C29.3776 42.4889 29.3998 42.8222 29.5332 43.1333C29.6665 43.4444 29.9109 43.6667 30.2665 43.8L34.1998 45.2C34.2887 45.2444 34.4221 45.2778 34.5998 45.3C34.7776 45.3222 34.9332 45.3333 35.0665 45.3333H53.3332C54.7554 45.3333 55.9998 45.8444 57.0665 46.8667C58.1332 47.8889 58.6665 49.1556 58.6665 50.6667L38.9998 58.0667C38.5554 58.2444 38.0109 58.3444 37.3665 58.3667C36.7221 58.3889 36.1554 58.3333 35.6665 58.2ZM2.6665 53.3333V34.6667C2.6665 33.2 3.18873 31.9444 4.23317 30.9C5.27762 29.8556 6.53317 29.3333 7.99984 29.3333C9.4665 29.3333 10.7221 29.8556 11.7665 30.9C12.8109 31.9444 13.3332 33.2 13.3332 34.6667V53.3333C13.3332 54.8 12.8109 56.0556 11.7665 57.1C10.7221 58.1444 9.4665 58.6667 7.99984 58.6667C6.53317 58.6667 5.27762 58.1444 4.23317 57.1C3.18873 56.0556 2.6665 54.8 2.6665 53.3333ZM34.4665 21.9333L47.7332 8.73333C48.2221 8.24444 48.8332 7.98889 49.5665 7.96667C50.2998 7.94444 50.9332 8.2 51.4665 8.73333C51.9554 9.22222 52.1998 9.84444 52.1998 10.6C52.1998 11.3556 51.9554 11.9778 51.4665 12.4667L36.3332 27.6C35.7998 28.1333 35.1776 28.4 34.4665 28.4C33.7554 28.4 33.1332 28.1333 32.5998 27.6L24.9998 20C24.4665 19.4667 24.211 18.8444 24.2332 18.1333C24.2554 17.4222 24.5332 16.8 25.0665 16.2667C25.5998 15.7778 26.2221 15.5222 26.9332 15.5C27.6443 15.4778 28.2665 15.7333 28.7998 16.2667L34.4665 21.9333Z" fill="white"/>
  </g>
</svg>