<svg xmlns="http://www.w3.org/2000/svg" width="17" height="17" viewBox="0 0 17 17" fill="none">
  <mask id="mask0_653_2138" style="mask-type:alpha" maskUnits="userSpaceOnUse" x="0" y="0" width="17" height="17">
    <rect x="0.764709" y="0.0294189" width="16" height="16" fill="#D9D9D9"/>
  </mask>
  <g mask="url(#mask0_653_2138)">
    <path d="M8.09799 10.8127V3.36271C8.09799 3.17382 8.16188 3.01549 8.28966 2.88771C8.41744 2.75993 8.57577 2.69604 8.76466 2.69604C8.95355 2.69604 9.11188 2.75993 9.23966 2.88771C9.36744 3.01549 9.43133 3.17382 9.43133 3.36271V10.8127L12.698 7.54605C12.8313 7.41271 12.9869 7.34882 13.1647 7.35438C13.3424 7.35993 13.498 7.42938 13.6313 7.56271C13.7535 7.69605 13.8174 7.8516 13.823 8.02938C13.8285 8.20716 13.7647 8.36271 13.6313 8.49605L9.23133 12.896C9.16466 12.9627 9.09244 13.0099 9.01466 13.0377C8.93688 13.0655 8.85355 13.0794 8.76466 13.0794C8.67577 13.0794 8.59244 13.0655 8.51466 13.0377C8.43688 13.0099 8.36466 12.9627 8.29799 12.896L3.89799 8.49605C3.77577 8.37382 3.71466 8.22105 3.71466 8.03771C3.71466 7.85438 3.77577 7.69605 3.89799 7.56271C4.03133 7.42938 4.18966 7.36271 4.37299 7.36271C4.55633 7.36271 4.71466 7.42938 4.84799 7.56271L8.09799 10.8127Z" fill="white"/>
  </g>
</svg>