<svg xmlns="http://www.w3.org/2000/svg" width="64" height="64" viewBox="0 0 64 64" fill="none">
  <mask id="mask0_766_3696" style="mask-type:alpha" maskUnits="userSpaceOnUse" x="0" y="0" width="64" height="64">
    <rect width="64" height="64" fill="#D9D9D9"/>
  </mask>
  <g mask="url(#mask0_766_3696)">
    <path d="M13.3333 56C11.8667 56 10.6111 55.4778 9.56667 54.4333C8.52222 53.3889 8 52.1333 8 50.6667V13.3333C8 11.8667 8.52222 10.6111 9.56667 9.56667C10.6111 8.52222 11.8667 8 13.3333 8H50.6667C52.1333 8 53.3889 8.52222 54.4333 9.56667C55.4778 10.6111 56 11.8667 56 13.3333V50.6667C56 52.1333 55.4778 53.3889 54.4333 54.4333C53.3889 55.4778 52.1333 56 50.6667 56H13.3333ZM50.6667 19.3333L34.5333 37.4667L25.8667 28.8C25.3333 28.2667 24.7111 28 24 28C23.2889 28 22.6667 28.2667 22.1333 28.8L13.3333 37.6V45.2L24 34.5333L32.8 43.3333C33.3333 43.8667 33.9889 44.1222 34.7667 44.1C35.5444 44.0778 36.1778 43.7778 36.6667 43.2L50.6667 27.3333V19.3333Z" fill="white"/>
  </g>
</svg>