<svg xmlns="http://www.w3.org/2000/svg" width="64" height="64" viewBox="0 0 64 64" fill="none">
  <mask id="mask0_48_21607" style="mask-type:alpha" maskUnits="userSpaceOnUse" x="0" y="0" width="64" height="64">
    <rect width="64" height="64" fill="#D9D9D9"/>
  </mask>
  <g mask="url(#mask0_48_21607)">
    <path d="M51.0002 41.5332C51.2668 41.2665 51.4002 40.9554 51.4002 40.5998C51.4002 40.2443 51.2668 39.9332 51.0002 39.6665C50.7335 39.3998 50.4224 39.2665 50.0668 39.2665C49.7113 39.2665 49.4002 39.3998 49.1335 39.6665L44.9335 43.7998C44.6668 44.0665 44.5335 44.3887 44.5335 44.7665C44.5335 45.1443 44.6668 45.4665 44.9335 45.7332C45.2002 45.9998 45.5224 46.1332 45.9002 46.1332C46.2779 46.1332 46.6002 45.9998 46.8668 45.7332L51.0002 41.5332ZM45.3335 58.6665C41.6446 58.6665 38.5002 57.3665 35.9002 54.7665C33.3002 52.1665 32.0002 49.0221 32.0002 45.3332C32.0002 41.6443 33.3002 38.4998 35.9002 35.8998C38.5002 33.2998 41.6446 31.9998 45.3335 31.9998C49.0224 31.9998 52.1668 33.2998 54.7668 35.8998C57.3668 38.4998 58.6668 41.6443 58.6668 45.3332C58.6668 49.0221 57.3668 52.1665 54.7668 54.7665C52.1668 57.3665 49.0224 58.6665 45.3335 58.6665ZM5.3335 29.3332V15.9998C5.3335 14.5332 5.85572 13.2776 6.90016 12.2332C7.94461 11.1887 9.20016 10.6665 10.6668 10.6665H53.3335C54.8002 10.6665 56.0557 11.1887 57.1002 12.2332C58.1446 13.2776 58.6668 14.5332 58.6668 15.9998V32.2665C56.889 30.4443 54.8557 29.0554 52.5668 28.0998C50.2779 27.1443 47.8668 26.6665 45.3335 26.6665C43.6446 26.6665 42.0335 26.8776 40.5002 27.2998C38.9668 27.7221 37.5113 28.3109 36.1335 29.0665L31.7335 20.1332C31.5113 19.6887 31.1779 19.3554 30.7335 19.1332C30.2891 18.9109 29.8224 18.7998 29.3335 18.7998C28.8446 18.7998 28.3779 18.9109 27.9335 19.1332C27.4891 19.3554 27.1557 19.6887 26.9335 20.1332L18.6668 36.7332L15.6668 30.7998C15.4446 30.3554 15.1224 29.9998 14.7002 29.7332C14.2779 29.4665 13.8224 29.3332 13.3335 29.3332H5.3335ZM10.6668 53.3332C9.20016 53.3332 7.94461 52.811 6.90016 51.7665C5.85572 50.7221 5.3335 49.4665 5.3335 47.9998V34.6665H11.6668L16.2668 43.8665C16.4891 44.3554 16.8113 44.7221 17.2335 44.9665C17.6557 45.2109 18.1335 45.3332 18.6668 45.3332C19.1557 45.3332 19.6113 45.2109 20.0335 44.9665C20.4557 44.7221 20.7779 44.3554 21.0002 43.8665L29.3335 27.3332L31.8668 32.3998C30.2668 34.0887 29.0002 36.0332 28.0668 38.2332C27.1335 40.4332 26.6668 42.7998 26.6668 45.3332C26.6668 46.7109 26.8113 48.0776 27.1002 49.4332C27.3891 50.7887 27.8446 52.0887 28.4668 53.3332H10.6668Z" fill="white"/>
  </g>
</svg>