<svg xmlns="http://www.w3.org/2000/svg" width="64" height="64" viewBox="0 0 64 64" fill="none">
  <mask id="mask0_847_2320" style="mask-type:alpha" maskUnits="userSpaceOnUse" x="0" y="0" width="64" height="64">
    <rect width="64" height="64" fill="#D9D9D9"/>
  </mask>
  <g mask="url(#mask0_847_2320)">
    <path d="M18.6666 53.3332C17.2 53.3332 15.9444 52.811 14.9 51.7665C13.8555 50.7221 13.3333 49.4665 13.3333 47.9998V23.3332L4.53328 12.8665C4.17773 12.4221 4.11106 11.9443 4.33328 11.4332C4.55551 10.9221 4.95551 10.6665 5.53328 10.6665H53.3333C54.8 10.6665 56.0555 11.1887 57.1 12.2332C58.1444 13.2776 58.6666 14.5332 58.6666 15.9998V47.9998C58.6666 49.4665 58.1444 50.7221 57.1 51.7665C56.0555 52.811 54.8 53.3332 53.3333 53.3332H18.6666ZM36.8 39.9998H45.3333C46.0888 39.9998 46.7222 39.7443 47.2333 39.2332C47.7444 38.7221 48 38.0887 48 37.3332C48 36.5776 47.7444 35.9443 47.2333 35.4332C46.7222 34.9221 46.0888 34.6665 45.3333 34.6665H30.4666C29.2666 34.6665 28.4333 35.2109 27.9666 36.2998C27.5 37.3887 27.6888 38.3554 28.5333 39.1998L34.1333 44.7998C34.6222 45.2887 35.2444 45.5332 36 45.5332C36.7555 45.5332 37.3777 45.2887 37.8666 44.7998C38.3555 44.311 38.6 43.6887 38.6 42.9332C38.6 42.1776 38.3555 41.5554 37.8666 41.0665L36.8 39.9998ZM35.2 23.9998H26.6666C25.9111 23.9998 25.2777 24.2554 24.7666 24.7665C24.2555 25.2776 24 25.9109 24 26.6665C24 27.4221 24.2555 28.0554 24.7666 28.5665C25.2777 29.0776 25.9111 29.3332 26.6666 29.3332H41.5333C42.7333 29.3332 43.5666 28.7887 44.0333 27.6998C44.5 26.6109 44.3111 25.6443 43.4666 24.7998L37.8666 19.1998C37.3777 18.7109 36.7555 18.4665 36 18.4665C35.2444 18.4665 34.6222 18.7109 34.1333 19.1998C33.6444 19.6887 33.4 20.3109 33.4 21.0665C33.4 21.8221 33.6444 22.4443 34.1333 22.9332L35.2 23.9998Z" fill="#FF9500"/>
  </g>
</svg>