<svg xmlns="http://www.w3.org/2000/svg" width="64" height="64" viewBox="0 0 64 64" fill="none">
  <mask id="mask0_847_2314" style="mask-type:alpha" maskUnits="userSpaceOnUse" x="0" y="0" width="64" height="64">
    <rect width="64" height="64" fill="#D9D9D9"/>
  </mask>
  <g mask="url(#mask0_847_2314)">
    <path d="M55.9998 56V13.3333H7.99984V32C7.99984 32.7556 7.74428 33.3889 7.23317 33.9C6.72206 34.4111 6.08873 34.6667 5.33317 34.6667C4.57762 34.6667 3.94428 34.4111 3.43317 33.9C2.92206 33.3889 2.6665 32.7556 2.6665 32V13.3333C2.6665 11.8667 3.18873 10.6111 4.23317 9.56667C5.27762 8.52222 6.53317 8 7.99984 8H55.9998C57.4665 8 58.7221 8.52222 59.7665 9.56667C60.811 10.6111 61.3332 11.8667 61.3332 13.3333V50.6667C61.3332 52.1333 60.811 53.3889 59.7665 54.4333C58.7221 55.4778 57.4665 56 55.9998 56ZM23.9998 37.3333C21.0665 37.3333 18.5554 36.2889 16.4665 34.2C14.3776 32.1111 13.3332 29.6 13.3332 26.6667C13.3332 23.7333 14.3776 21.2222 16.4665 19.1333C18.5554 17.0444 21.0665 16 23.9998 16C26.9332 16 29.4443 17.0444 31.5332 19.1333C33.6221 21.2222 34.6665 23.7333 34.6665 26.6667C34.6665 29.6 33.6221 32.1111 31.5332 34.2C29.4443 36.2889 26.9332 37.3333 23.9998 37.3333ZM7.99984 58.6667C6.53317 58.6667 5.27762 58.1444 4.23317 57.1C3.18873 56.0556 2.6665 54.8 2.6665 53.3333V51.2C2.6665 49.6889 3.05539 48.3 3.83317 47.0333C4.61095 45.7667 5.64428 44.8 6.93317 44.1333C9.68873 42.7556 12.4887 41.7222 15.3332 41.0333C18.1776 40.3444 21.0665 40 23.9998 40C26.9332 40 29.8221 40.3444 32.6665 41.0333C35.5109 41.7222 38.311 42.7556 41.0665 44.1333C42.3554 44.8 43.3887 45.7667 44.1665 47.0333C44.9443 48.3 45.3332 49.6889 45.3332 51.2V53.3333C45.3332 54.8 44.811 56.0556 43.7665 57.1C42.7221 58.1444 41.4665 58.6667 39.9998 58.6667H7.99984Z" fill="#FF9500"/>
  </g>
</svg>