<svg xmlns="http://www.w3.org/2000/svg" width="64" height="64" viewBox="0 0 64 64" fill="none">
  <mask id="mask0_48_21597" style="mask-type:alpha" maskUnits="userSpaceOnUse" x="0" y="0" width="64" height="64">
    <rect width="64" height="64" fill="#D9D9D9"/>
  </mask>
  <g mask="url(#mask0_48_21597)">
    <path d="M29.1332 29.9333L25.3332 26.1333C24.8443 25.6444 24.2332 25.3889 23.4998 25.3667C22.7665 25.3444 22.1332 25.6 21.5998 26.1333C21.1109 26.6222 20.8665 27.2444 20.8665 28C20.8665 28.7556 21.1109 29.3778 21.5998 29.8667L27.2665 35.6C27.7998 36.1333 28.4221 36.4 29.1332 36.4C29.8443 36.4 30.4665 36.1333 30.9998 35.6L43.3998 24.2667C43.3998 23.5556 43.3554 22.8667 43.2665 22.2C43.1776 21.5333 42.8887 20.9556 42.3998 20.4667C41.8665 19.9333 41.2332 19.6667 40.4998 19.6667C39.7665 19.6667 39.1332 19.9333 38.5998 20.4667L29.1332 29.9333ZM2.6665 56V50.6667H58.6665C59.4221 50.6667 60.0554 50.9222 60.5665 51.4333C61.0776 51.9444 61.3332 52.5778 61.3332 53.3333C61.3332 54.0889 61.0776 54.7222 60.5665 55.2333C60.0554 55.7444 59.4221 56 58.6665 56H2.6665ZM10.6665 48C9.19984 48 7.94428 47.4778 6.89984 46.4333C5.85539 45.3889 5.33317 44.1333 5.33317 42.6667V13.3333C5.33317 11.8667 5.85539 10.6111 6.89984 9.56667C7.94428 8.52222 9.19984 8 10.6665 8H53.3332C54.7998 8 56.0554 8.52222 57.0998 9.56667C58.1443 10.6111 58.6665 11.8667 58.6665 13.3333V42.6667C58.6665 44.1333 58.1443 45.3889 57.0998 46.4333C56.0554 47.4778 54.7998 48 53.3332 48H10.6665Z" fill="white"/>
  </g>
</svg>