<svg xmlns="http://www.w3.org/2000/svg" width="64" height="64" viewBox="0 0 64 64" fill="none">
  <mask id="mask0_766_3684" style="mask-type:alpha" maskUnits="userSpaceOnUse" x="0" y="0" width="64" height="64">
    <rect width="64" height="64" fill="#D9D9D9"/>
  </mask>
  <g mask="url(#mask0_766_3684)">
    <path d="M32 29.3333C38.6667 29.3333 44.3333 28.2889 49 26.2C53.6667 24.1111 56 21.6 56 18.6667C56 15.7333 53.6667 13.2222 49 11.1333C44.3333 9.04444 38.6667 8 32 8C25.3333 8 19.6667 9.04444 15 11.1333C10.3333 13.2222 8 15.7333 8 18.6667C8 21.6 10.3333 24.1111 15 26.2C19.6667 28.2889 25.3333 29.3333 32 29.3333ZM32 36C33.8222 36 36.1 35.8111 38.8333 35.4333C41.5667 35.0556 44.2 34.4444 46.7333 33.6C49.2667 32.7556 51.4444 31.6556 53.2667 30.3C55.0889 28.9444 56 27.2889 56 25.3333V32C56 33.9556 55.0889 35.6111 53.2667 36.9667C51.4444 38.3222 49.2667 39.4222 46.7333 40.2667C44.2 41.1111 41.5667 41.7222 38.8333 42.1C36.1 42.4778 33.8222 42.6667 32 42.6667C30.1778 42.6667 27.9 42.4778 25.1667 42.1C22.4333 41.7222 19.8 41.1111 17.2667 40.2667C14.7333 39.4222 12.5556 38.3222 10.7333 36.9667C8.91111 35.6111 8 33.9556 8 32V25.3333C8 27.2889 8.91111 28.9444 10.7333 30.3C12.5556 31.6556 14.7333 32.7556 17.2667 33.6C19.8 34.4444 22.4333 35.0556 25.1667 35.4333C27.9 35.8111 30.1778 36 32 36ZM32 49.3333C33.8222 49.3333 36.1 49.1444 38.8333 48.7667C41.5667 48.3889 44.2 47.7778 46.7333 46.9333C49.2667 46.0889 51.4444 44.9889 53.2667 43.6333C55.0889 42.2778 56 40.6222 56 38.6667V45.3333C56 47.2889 55.0889 48.9444 53.2667 50.3C51.4444 51.6556 49.2667 52.7556 46.7333 53.6C44.2 54.4444 41.5667 55.0556 38.8333 55.4333C36.1 55.8111 33.8222 56 32 56C30.1778 56 27.9 55.8111 25.1667 55.4333C22.4333 55.0556 19.8 54.4444 17.2667 53.6C14.7333 52.7556 12.5556 51.6556 10.7333 50.3C8.91111 48.9444 8 47.2889 8 45.3333V38.6667C8 40.6222 8.91111 42.2778 10.7333 43.6333C12.5556 44.9889 14.7333 46.0889 17.2667 46.9333C19.8 47.7778 22.4333 48.3889 25.1667 48.7667C27.9 49.1444 30.1778 49.3333 32 49.3333Z" fill="white"/>
  </g>
</svg>