<svg xmlns="http://www.w3.org/2000/svg" width="16" height="16" viewBox="0 0 16 16" fill="none">
  <mask id="mask0_653_2160" style="mask-type:alpha" maskUnits="userSpaceOnUse" x="0" y="0" width="16" height="16">
    <rect width="16" height="16" fill="#D9D9D9"/>
  </mask>
  <g mask="url(#mask0_653_2160)">
    <path d="M7.30004 9.10008L6.38337 8.18341C6.25004 8.05008 6.08893 7.98341 5.90004 7.98341C5.71115 7.98341 5.55004 8.05008 5.41671 8.18341C5.28337 8.31675 5.21671 8.47786 5.21671 8.66675C5.21671 8.85564 5.28337 9.01675 5.41671 9.15008L6.83337 10.5667C6.96671 10.7001 7.12226 10.7667 7.30004 10.7667C7.47782 10.7667 7.63337 10.7001 7.76671 10.5667L10.5834 7.75008C10.7167 7.61675 10.7834 7.45564 10.7834 7.26675C10.7834 7.07786 10.7167 6.91675 10.5834 6.78341C10.45 6.65008 10.2889 6.58341 10.1 6.58341C9.91115 6.58341 9.75004 6.65008 9.61671 6.78341L7.30004 9.10008ZM2.66671 5.33341H13.3334V4.00008H2.66671V5.33341ZM2.66671 13.3334C2.30004 13.3334 1.98615 13.2029 1.72504 12.9417C1.46393 12.6806 1.33337 12.3667 1.33337 12.0001V4.00008C1.33337 3.63341 1.46393 3.31953 1.72504 3.05841C1.98615 2.7973 2.30004 2.66675 2.66671 2.66675H13.3334C13.7 2.66675 14.0139 2.7973 14.275 3.05841C14.5362 3.31953 14.6667 3.63341 14.6667 4.00008V12.0001C14.6667 12.3667 14.5362 12.6806 14.275 12.9417C14.0139 13.2029 13.7 13.3334 13.3334 13.3334H2.66671Z" fill="#1C1B1F"/>
  </g>
</svg>