<svg xmlns="http://www.w3.org/2000/svg" width="64" height="64" viewBox="0 0 64 64" fill="none">
  <mask id="mask0_766_3690" style="mask-type:alpha" maskUnits="userSpaceOnUse" x="0" y="0" width="64" height="64">
    <rect width="64" height="64" fill="#D9D9D9"/>
  </mask>
  <g mask="url(#mask0_766_3690)">
    <path d="M39.533 29.3335C39.133 28.1779 38.5219 27.1668 37.6997 26.3001C36.8774 25.4335 35.8885 24.8001 34.733 24.4001V5.4668C41.0885 6.08902 46.4997 8.63346 50.9663 13.1001C55.433 17.5668 57.9774 22.9779 58.5997 29.3335H39.533ZM29.3997 58.5335C22.5552 57.8668 16.8441 55.0001 12.2663 49.9335C7.68855 44.8668 5.39966 38.889 5.39966 32.0001C5.39966 25.1112 7.68855 19.1335 12.2663 14.0668C16.8441 9.00013 22.5552 6.13346 29.3997 5.4668V24.4001C27.7997 24.9779 26.5108 25.9668 25.533 27.3668C24.5552 28.7668 24.0663 30.3112 24.0663 32.0001C24.0663 33.689 24.5552 35.2112 25.533 36.5668C26.5108 37.9224 27.7997 38.889 29.3997 39.4668V58.5335ZM34.733 58.5335V39.4668C35.8885 39.0668 36.8774 38.4557 37.6997 37.6335C38.5219 36.8112 39.133 35.8223 39.533 34.6668H58.5997C57.9774 41.0224 55.433 46.4335 50.9663 50.9001C46.4997 55.3668 41.0885 57.9112 34.733 58.5335Z" fill="white"/>
  </g>
</svg>