<svg xmlns="http://www.w3.org/2000/svg" width="16" height="16" viewBox="0 0 16 16" fill="none">
  <mask id="mask0_659_2440" style="mask-type:alpha" maskUnits="userSpaceOnUse" x="0" y="0" width="16" height="16">
    <rect width="16" height="16" fill="#D9D9D9"/>
  </mask>
  <g mask="url(#mask0_659_2440)">
    <path d="M8.00002 7.99992C8.72224 7.99992 9.47224 7.94159 10.25 7.82492C11.0278 7.70825 11.75 7.54436 12.4167 7.33325C12.6389 7.24436 12.8472 7.27214 13.0417 7.41658C13.2361 7.56103 13.3334 7.74992 13.3334 7.98325V12.7499C13.3334 13.0277 13.2528 13.2805 13.0917 13.5083C12.9306 13.736 12.7222 13.8999 12.4667 13.9999C11.8334 14.211 11.125 14.3749 10.3417 14.4916C9.55835 14.6083 8.7778 14.6666 8.00002 14.6666C7.22224 14.6666 6.44169 14.6083 5.65835 14.4916C4.87502 14.3749 4.16669 14.211 3.53335 13.9999C3.2778 13.8999 3.06946 13.736 2.90835 13.5083C2.74724 13.2805 2.66669 13.0277 2.66669 12.7499V7.98325C2.66669 7.74992 2.76391 7.56103 2.95835 7.41658C3.1528 7.27214 3.36113 7.24436 3.58335 7.33325C4.25002 7.54436 4.97224 7.70825 5.75002 7.82492C6.5278 7.94159 7.2778 7.99992 8.00002 7.99992ZM8.00002 1.33325C8.73335 1.33325 9.36113 1.59436 9.88335 2.11659C10.4056 2.63881 10.6667 3.26659 10.6667 3.99992C10.6667 4.73325 10.4056 5.36103 9.88335 5.88325C9.36113 6.40547 8.73335 6.66658 8.00002 6.66658C7.26669 6.66658 6.63891 6.40547 6.11669 5.88325C5.59447 5.36103 5.33335 4.73325 5.33335 3.99992C5.33335 3.26659 5.59447 2.63881 6.11669 2.11659C6.63891 1.59436 7.26669 1.33325 8.00002 1.33325Z" fill="#1C1B1F"/>
  </g>
</svg>