<svg xmlns="http://www.w3.org/2000/svg" width="64" height="64" viewBox="0 0 64 64" fill="none">
  <mask id="mask0_847_2308" style="mask-type:alpha" maskUnits="userSpaceOnUse" x="0" y="0" width="64" height="64">
    <rect width="64" height="64" fill="#D9D9D9"/>
  </mask>
  <g mask="url(#mask0_847_2308)">
    <path d="M31.9998 32.0002C34.8887 32.0002 37.8887 31.7668 40.9998 31.3002C44.111 30.8335 46.9998 30.1779 49.6665 29.3335C50.5554 28.9779 51.3887 29.0891 52.1665 29.6668C52.9443 30.2446 53.3332 31.0002 53.3332 31.9335V51.0002C53.3332 52.1113 53.0109 53.1224 52.3665 54.0335C51.7221 54.9446 50.8887 55.6002 49.8665 56.0002C47.3332 56.8446 44.4998 57.5002 41.3665 57.9668C38.2332 58.4335 35.1109 58.6668 31.9998 58.6668C28.8887 58.6668 25.7665 58.4335 22.6332 57.9668C19.4998 57.5002 16.6665 56.8446 14.1332 56.0002C13.1109 55.6002 12.2776 54.9446 11.6332 54.0335C10.9887 53.1224 10.6665 52.1113 10.6665 51.0002V31.9335C10.6665 31.0002 11.0554 30.2446 11.8332 29.6668C12.6109 29.0891 13.4443 28.9779 14.3332 29.3335C16.9998 30.1779 19.8887 30.8335 22.9998 31.3002C26.1109 31.7668 29.1109 32.0002 31.9998 32.0002ZM31.9998 5.3335C34.9332 5.3335 37.4443 6.37794 39.5332 8.46683C41.6221 10.5557 42.6665 13.0668 42.6665 16.0002C42.6665 18.9335 41.6221 21.4446 39.5332 23.5335C37.4443 25.6224 34.9332 26.6668 31.9998 26.6668C29.0665 26.6668 26.5554 25.6224 24.4665 23.5335C22.3776 21.4446 21.3332 18.9335 21.3332 16.0002C21.3332 13.0668 22.3776 10.5557 24.4665 8.46683C26.5554 6.37794 29.0665 5.3335 31.9998 5.3335Z" fill="#FF9500"/>
  </g>
</svg>