<svg xmlns="http://www.w3.org/2000/svg" width="40" height="40" viewBox="0 0 40 40" fill="none">
  <g clip-path="url(#clip0_766_3812)">
    <path d="M28.3332 6.6665C30.1765 6.6665 31.5915 8.0715 32.6399 9.58317L32.9949 10.1182L33.3199 10.6515C33.4232 10.8248 33.5215 10.9982 33.6165 11.1648C34.9282 13.5098 36.0699 16.5715 36.8249 19.5965C37.5749 22.5982 37.9899 25.7332 37.7249 28.1982C37.4582 30.6732 36.1832 33.3332 33.3332 33.3332C30.7765 33.3332 28.7615 31.9665 27.1249 30.6315L25.2749 29.0798C23.7365 27.8198 22.0532 26.6665 19.9999 26.6665C17.9465 26.6665 16.2615 27.8198 14.7265 29.0798L12.8765 30.6298C11.2365 31.9665 9.22155 33.3332 6.66655 33.3332C3.81488 33.3332 2.53988 30.6732 2.27488 28.1982C2.01155 25.7315 2.42488 22.5982 3.17488 19.5965C3.92988 16.5715 5.07155 13.5098 6.38321 11.1648L6.67988 10.6498L7.00488 10.1182L7.35988 9.58317C8.40821 8.0715 9.82321 6.6665 11.6665 6.6665C12.5165 6.6665 13.3615 6.87317 14.1915 7.1165L15.1799 7.41984C15.3432 7.46984 15.5049 7.51817 15.6665 7.56317C17.1082 7.9765 18.5832 8.33317 19.9999 8.33317C21.4165 8.33317 22.8915 7.9765 24.3332 7.56317L25.8082 7.11817C26.6382 6.87317 27.4832 6.6665 28.3332 6.6665ZM14.1665 13.3332C13.0615 13.3332 12.0017 13.7722 11.2203 14.5536C10.4389 15.335 9.99988 16.3948 9.99988 17.4998C9.99988 18.6049 10.4389 19.6647 11.2203 20.4461C12.0017 21.2275 13.0615 21.6665 14.1665 21.6665C15.2716 21.6665 16.3314 21.2275 17.1128 20.4461C17.8942 19.6647 18.3332 18.6049 18.3332 17.4998C18.3332 16.3948 17.8942 15.335 17.1128 14.5536C16.3314 13.7722 15.2716 13.3332 14.1665 13.3332ZM25.8332 13.3332C25.3912 13.3332 24.9673 13.5088 24.6547 13.8213C24.3421 14.1339 24.1665 14.5578 24.1665 14.9998V15.8332H23.3332C22.8912 15.8332 22.4673 16.0088 22.1547 16.3213C21.8421 16.6339 21.6665 17.0578 21.6665 17.4998C21.6665 17.9419 21.8421 18.3658 22.1547 18.6783C22.4673 18.9909 22.8912 19.1665 23.3332 19.1665H24.1665V19.9998C24.1665 20.4419 24.3421 20.8658 24.6547 21.1783C24.9673 21.4909 25.3912 21.6665 25.8332 21.6665C26.2752 21.6665 26.6992 21.4909 27.0117 21.1783C27.3243 20.8658 27.4999 20.4419 27.4999 19.9998V19.1665H28.3332C28.7752 19.1665 29.1992 18.9909 29.5117 18.6783C29.8243 18.3658 29.9999 17.9419 29.9999 17.4998C29.9999 17.0578 29.8243 16.6339 29.5117 16.3213C29.1992 16.0088 28.7752 15.8332 28.3332 15.8332H27.4999V14.9998C27.4999 14.5578 27.3243 14.1339 27.0117 13.8213C26.6992 13.5088 26.2752 13.3332 25.8332 13.3332ZM14.1665 16.6665C14.3876 16.6665 14.5995 16.7543 14.7558 16.9106C14.9121 17.0669 14.9999 17.2788 14.9999 17.4998C14.9999 17.7209 14.9121 17.9328 14.7558 18.0891C14.5995 18.2454 14.3876 18.3332 14.1665 18.3332C13.9455 18.3332 13.7336 18.2454 13.5773 18.0891C13.421 17.9328 13.3332 17.7209 13.3332 17.4998C13.3332 17.2788 13.421 17.0669 13.5773 16.9106C13.7336 16.7543 13.9455 16.6665 14.1665 16.6665Z" fill="white"/>
  </g>
  <defs>
    <clipPath id="clip0_766_3812">
      <rect width="40" height="40" fill="white"/>
    </clipPath>
  </defs>
</svg>