<svg xmlns="http://www.w3.org/2000/svg" width="24" height="25" viewBox="0 0 24 25" fill="none">
  <g clip-path="url(#clip0_611_852)">
    <path d="M12 0.307617C5.36756 0.307617 0 5.67466 0 12.3076C0 18.9401 5.36705 24.3076 12 24.3076C18.6324 24.3076 24 18.9406 24 12.3076C24 5.67518 18.633 0.307617 12 0.307617ZM7.35684 2.78041C6.9937 3.76943 6.68888 4.7748 6.44283 5.79424C5.72372 5.57576 5.01633 5.31377 4.32206 5.00852C5.20116 4.08495 6.22556 3.33293 7.35684 2.78041ZM3.39084 6.13137C4.28948 6.54752 5.20917 6.89543 6.14719 7.17448C5.87503 8.62727 5.71941 10.1059 5.68247 11.6045H1.42978C1.5593 9.61507 2.23725 7.73215 3.39084 6.13137ZM3.39084 18.4839C2.23725 16.8831 1.5593 15.0002 1.42978 13.0107H5.68247C5.71941 14.5093 5.87503 15.988 6.14719 17.4408C5.20917 17.7198 4.28953 18.0677 3.39084 18.4839ZM4.32206 19.6068C5.01633 19.3015 5.72367 19.0395 6.44283 18.821C6.68892 19.8405 6.9937 20.8458 7.35684 21.8349C6.22612 21.2826 5.20162 20.5308 4.32206 19.6068ZM11.2969 22.8778C10.5584 22.8298 9.83452 22.7065 9.1343 22.511C8.57812 21.1929 8.13422 19.8414 7.80314 18.4628C8.94305 18.2079 10.1093 18.0589 11.2969 18.0168V22.8778ZM11.2969 16.6097C10.0103 16.6522 8.74664 16.8116 7.51167 17.0866C7.26633 15.7493 7.12495 14.389 7.08919 13.0107H11.2969V16.6097ZM11.2969 11.6045H7.08919C7.12495 10.2263 7.26633 8.86591 7.51167 7.52862C8.74664 7.80368 10.0103 7.96306 11.2969 8.00557V11.6045ZM11.2969 6.59848C10.1093 6.55634 8.94305 6.40732 7.80314 6.15246C8.13422 4.77382 8.57812 3.42232 9.1343 2.1042C9.83452 1.90873 10.5584 1.78545 11.2969 1.7374V6.59848ZM20.6092 6.13137C21.7627 7.73215 22.4407 9.61507 22.5702 11.6045H18.3175C18.2806 10.1059 18.125 8.62727 17.8528 7.17448C18.7908 6.89543 19.7105 6.54752 20.6092 6.13137ZM19.6779 5.00848C18.9837 5.31377 18.2763 5.57576 17.5572 5.7942C17.3111 4.77476 17.0063 3.76938 16.6432 2.78037C17.7739 3.3326 18.7984 4.08448 19.6779 5.00848ZM12.7031 1.7374C13.4416 1.78545 14.1655 1.90873 14.8657 2.1042C15.4219 3.42232 15.8658 4.77382 16.1969 6.15246C15.057 6.40732 13.8907 6.55634 12.7031 6.59848V1.7374ZM12.7031 8.00557C13.9897 7.96306 15.2534 7.80368 16.4883 7.52862C16.7337 8.86591 16.875 10.2263 16.9108 11.6045H12.7031V8.00557ZM14.8657 22.511C14.1655 22.7065 13.4416 22.8298 12.7031 22.8778V18.0168C13.8907 18.0589 15.057 18.2079 16.1969 18.4628C15.8657 19.8414 15.4219 21.1929 14.8657 22.511ZM12.7031 16.6097V13.0107H16.9108C16.875 14.389 16.7337 15.7493 16.4883 17.0866C15.2534 16.8116 13.9897 16.6522 12.7031 16.6097ZM16.6432 21.8348C17.0063 20.8458 17.3111 19.8404 17.5572 18.821C18.2763 19.0395 18.9837 19.3015 19.6779 19.6067C18.7988 20.5303 17.7744 21.2823 16.6432 21.8348ZM20.6092 18.4839C19.7105 18.0677 18.7908 17.7198 17.8528 17.4408C18.125 15.988 18.2806 14.5093 18.3175 13.0107H22.5702C22.4407 15.0002 21.7627 16.8831 20.6092 18.4839Z" fill="white"/>
  </g>
  <defs>
    <clipPath id="clip0_611_852">
      <rect width="24" height="24" fill="white" transform="translate(0 0.307617)"/>
    </clipPath>
  </defs>
</svg>