<svg xmlns="http://www.w3.org/2000/svg" width="16" height="16" viewBox="0 0 16 16" fill="none">
  <mask id="mask0_659_2455" style="mask-type:alpha" maskUnits="userSpaceOnUse" x="0" y="0" width="16" height="16">
    <rect width="16" height="16" fill="#D9D9D9"/>
  </mask>
  <g mask="url(#mask0_659_2455)">
    <path d="M7.99998 14.6666C7.07776 14.6666 6.21109 14.4916 5.39998 14.1416C4.58887 13.7916 3.88331 13.3166 3.28331 12.7166C2.68331 12.1166 2.20831 11.411 1.85831 10.5999C1.50831 9.78881 1.33331 8.92214 1.33331 7.99992C1.33331 7.0777 1.50831 6.21103 1.85831 5.39992C2.20831 4.58881 2.68331 3.88325 3.28331 3.28325C3.88331 2.68325 4.58887 2.20825 5.39998 1.85825C6.21109 1.50825 7.07776 1.33325 7.99998 1.33325C8.9222 1.33325 9.78887 1.50825 10.6 1.85825C11.4111 2.20825 12.1166 2.68325 12.7166 3.28325C13.3166 3.88325 13.7916 4.58881 14.1416 5.39992C14.4916 6.21103 14.6666 7.0777 14.6666 7.99992C14.6666 8.92214 14.4916 9.78881 14.1416 10.5999C13.7916 11.411 13.3166 12.1166 12.7166 12.7166C12.1166 13.3166 11.4111 13.7916 10.6 14.1416C9.78887 14.4916 8.9222 14.6666 7.99998 14.6666ZM7.99998 13.3333C9.48887 13.3333 10.75 12.8166 11.7833 11.7833C12.8166 10.7499 13.3333 9.48881 13.3333 7.99992C13.3333 7.92214 13.3305 7.84158 13.325 7.75825C13.3194 7.67492 13.3166 7.60547 13.3166 7.54992C13.2611 7.87214 13.1111 8.13881 12.8666 8.34992C12.6222 8.56103 12.3333 8.66658 12 8.66658H10.6666C10.3 8.66658 9.98609 8.53603 9.72498 8.27492C9.46387 8.01381 9.33331 7.69992 9.33331 7.33325V6.66658H6.66665V5.33325C6.66665 4.96659 6.7972 4.6527 7.05831 4.39159C7.31942 4.13047 7.63331 3.99992 7.99998 3.99992H8.66665C8.66665 3.74436 8.73609 3.51936 8.87498 3.32492C9.01387 3.13047 9.18331 2.97214 9.38331 2.84992C9.16109 2.79436 8.93609 2.74992 8.70831 2.71659C8.48053 2.68325 8.24442 2.66659 7.99998 2.66659C6.51109 2.66659 5.24998 3.18325 4.21665 4.21659C3.18331 5.24992 2.66665 6.51103 2.66665 7.99992H5.99998C6.73331 7.99992 7.36109 8.26103 7.88331 8.78325C8.40553 9.30547 8.66665 9.93325 8.66665 10.6666V11.3333H6.66665V13.1666C6.88887 13.2221 7.10831 13.2638 7.32498 13.2916C7.54165 13.3194 7.76665 13.3333 7.99998 13.3333Z" fill="#1C1B1F"/>
  </g>
</svg>