<svg xmlns="http://www.w3.org/2000/svg" width="24" height="25" viewBox="0 0 24 25" fill="none">
  <g clip-path="url(#clip0_48_22103)">
    <path d="M12 0.307739C5.36756 0.307739 0 5.67479 0 12.3077C0 18.9402 5.36705 24.3077 12 24.3077C18.6324 24.3077 24 18.9407 24 12.3077C24 5.6753 18.633 0.307739 12 0.307739ZM7.35684 2.78054C6.9937 3.76955 6.68888 4.77493 6.44283 5.79436C5.72372 5.57588 5.01633 5.3139 4.32206 5.00865C5.20116 4.08507 6.22556 3.33305 7.35684 2.78054ZM3.39084 6.13149C4.28948 6.54765 5.20917 6.89555 6.14719 7.1746C5.87503 8.6274 5.71941 10.1061 5.68247 11.6046H1.42978C1.5593 9.61519 2.23725 7.73227 3.39084 6.13149ZM3.39084 18.484C2.23725 16.8832 1.5593 15.0003 1.42978 13.0109H5.68247C5.71941 14.5094 5.87503 15.9881 6.14719 17.4409C5.20917 17.7199 4.28953 18.0678 3.39084 18.484ZM4.32206 19.6069C5.01633 19.3016 5.72367 19.0396 6.44283 18.8212C6.68892 19.8406 6.9937 20.846 7.35684 21.835C6.22612 21.2828 5.20163 20.5309 4.32206 19.6069ZM11.2969 22.878C10.5584 22.8299 9.83452 22.7066 9.1343 22.5112C8.57813 21.193 8.13422 19.8415 7.80314 18.4629C8.94305 18.208 10.1093 18.059 11.2969 18.0169V22.878ZM11.2969 16.6098C10.0103 16.6523 8.74664 16.8117 7.51167 17.0867C7.26633 15.7494 7.12495 14.3891 7.08919 13.0109H11.2969V16.6098ZM11.2969 11.6046H7.08919C7.12495 10.2264 7.26633 8.86604 7.51167 7.52874C8.74664 7.8038 10.0103 7.96318 11.2969 8.00569V11.6046ZM11.2969 6.5986C10.1093 6.55646 8.94305 6.40744 7.80314 6.15258C8.13422 4.77394 8.57813 3.42244 9.1343 2.10432C9.83452 1.90885 10.5584 1.78557 11.2969 1.73752V6.5986ZM20.6092 6.13149C21.7627 7.73227 22.4407 9.61519 22.5702 11.6046H18.3175C18.2806 10.1061 18.125 8.6274 17.8528 7.1746C18.7908 6.89555 19.7105 6.54765 20.6092 6.13149ZM19.6779 5.0086C18.9837 5.3139 18.2763 5.57588 17.5572 5.79432C17.3111 4.77488 17.0063 3.7695 16.6432 2.78049C17.7739 3.33272 18.7984 4.0846 19.6779 5.0086ZM12.7031 1.73752C13.4416 1.78557 14.1655 1.90885 14.8657 2.10432C15.4219 3.42244 15.8658 4.77394 16.1969 6.15258C15.057 6.40744 13.8907 6.55646 12.7031 6.5986V1.73752ZM12.7031 8.00569C13.9897 7.96318 15.2534 7.8038 16.4883 7.52874C16.7337 8.86604 16.875 10.2264 16.9108 11.6046H12.7031V8.00569ZM14.8657 22.5111C14.1655 22.7066 13.4416 22.8299 12.7031 22.878V18.0169C13.8907 18.059 15.057 18.208 16.1969 18.4629C15.8657 19.8415 15.4219 21.193 14.8657 22.5111ZM12.7031 16.6098V13.0109H16.9108C16.875 14.3891 16.7337 15.7494 16.4883 17.0867C15.2534 16.8117 13.9897 16.6523 12.7031 16.6098ZM16.6432 21.8349C17.0063 20.8459 17.3111 19.8406 17.5572 18.8211C18.2763 19.0396 18.9837 19.3016 19.6779 19.6068C18.7988 20.5304 17.7744 21.2824 16.6432 21.8349ZM20.6092 18.484C19.7105 18.0678 18.7908 17.7199 17.8528 17.4409C18.125 15.9881 18.2806 14.5094 18.3175 13.0109H22.5702C22.4407 15.0003 21.7627 16.8832 20.6092 18.484Z" fill="black"/>
  </g>
  <defs>
    <clipPath id="clip0_48_22103">
      <rect width="24" height="24" fill="white" transform="translate(0 0.307739)"/>
    </clipPath>
  </defs>
</svg>