<svg xmlns="http://www.w3.org/2000/svg" width="26" height="26" viewBox="0 0 26 26" fill="none">
  <g clip-path="url(#clip0_659_4850)">
    <path d="M13 9.89118C12.3878 9.89144 11.7894 10.0729 11.2804 10.4127C10.7715 10.7526 10.375 11.2355 10.1409 11.8004C9.90669 12.3653 9.84559 12.9869 9.96519 13.5865C10.0847 14.1861 10.3796 14.7369 10.8126 15.1691C11.2456 15.6013 11.7972 15.8956 12.3977 16.0149C12.9981 16.134 13.6204 16.0728 14.186 15.8388C14.7516 15.6047 15.235 15.2084 15.5751 14.7001C15.9153 14.1918 16.0968 13.5941 16.0968 12.9827C16.0962 12.1627 15.7697 11.3766 15.189 10.7969C14.6084 10.2172 13.821 9.89144 13 9.89118ZM20.2376 7.51488C20.0801 7.11604 19.8421 6.75378 19.5385 6.45059C19.2349 6.14741 18.8722 5.90975 18.4727 5.75236C17.254 5.27189 14.3523 5.37969 13 5.37969C11.6477 5.37969 8.74891 5.26783 7.52665 5.75236C7.12728 5.90975 6.76454 6.14741 6.46095 6.45059C6.15735 6.75378 5.91938 7.11604 5.76178 7.51488C5.28125 8.73201 5.38861 11.6328 5.38861 12.9821C5.38861 14.3314 5.28125 17.2287 5.7641 18.4499C5.9217 18.8487 6.15968 19.211 6.46326 19.5141C6.76686 19.8174 7.1296 20.055 7.52898 20.2124C8.7477 20.6929 11.6495 20.5851 13.0023 20.5851C14.3551 20.5851 17.2528 20.697 18.4751 20.2124C18.8744 20.055 19.2372 19.8174 19.5408 19.5141C19.8444 19.211 20.0824 18.8487 20.24 18.4499C20.7245 17.2327 20.6131 14.3319 20.6131 12.9827C20.6131 11.6334 20.7245 8.73661 20.24 7.51546L20.2376 7.51488ZM13 17.7352C12.0588 17.7352 11.1387 17.4565 10.3561 16.9343C9.57346 16.4121 8.9635 15.6699 8.60332 14.8014C8.24313 13.933 8.14889 12.9774 8.33251 12.0555C8.51614 11.1335 8.96939 10.2867 9.63491 9.62208C10.3005 8.95743 11.1485 8.50478 12.0715 8.3214C12.9947 8.13803 13.9516 8.23214 14.8211 8.59186C15.6907 8.95154 16.434 9.56072 16.9569 10.3423C17.4798 11.1238 17.759 12.0427 17.759 12.9827C17.7597 13.607 17.6371 14.2254 17.3982 14.8023C17.1593 15.3793 16.8088 15.9035 16.3667 16.345C15.9247 16.7864 15.3998 17.1364 14.8221 17.375C14.2444 17.6136 13.6251 17.736 13 17.7352ZM17.9551 9.14004C17.7354 9.14013 17.5205 9.07521 17.3378 8.95336C17.1551 8.83151 17.0126 8.65832 16.9284 8.45562C16.8443 8.25294 16.8222 8.02987 16.865 7.81465C16.9078 7.59942 17.0135 7.4017 17.1688 7.2465C17.3241 7.0913 17.5221 6.98559 17.7375 6.94275C17.9531 6.89989 18.1764 6.92182 18.3795 7.00577C18.5825 7.08971 18.756 7.2319 18.8781 7.41434C19.0002 7.59678 19.0653 7.81128 19.0653 8.03071C19.0659 8.17642 19.0377 8.32082 18.9823 8.45562C18.927 8.59043 18.8454 8.71303 18.7425 8.81625C18.6396 8.91956 18.5172 9.00155 18.3825 9.05745C18.2478 9.11343 18.1033 9.14229 17.9574 9.14238L17.9551 9.14004ZM23.2143 0H2.78572C2.04689 0 1.33834 0.293103 0.815916 0.814829C0.293494 1.33656 0 2.04416 0 2.782V23.1833C0 23.9211 0.293494 24.6288 0.815916 25.1505C1.33834 25.6722 2.04689 25.9653 2.78572 25.9653H23.2143C23.9531 25.9653 24.6617 25.6722 25.1841 25.1505C25.7065 24.6288 26 23.9211 26 23.1833V2.782C26 2.04416 25.7065 1.33656 25.1841 0.814829C24.6617 0.293103 23.9531 0 23.2143 0ZM22.2207 16.8079C22.1458 18.2934 21.8064 19.6096 20.7205 20.6911C19.6347 21.7727 18.3178 22.1186 16.8321 22.1894C15.2994 22.2757 10.7041 22.2757 9.17141 22.1894C7.68393 22.1146 6.37058 21.7749 5.28299 20.6911C4.1954 19.6073 3.85357 18.2905 3.78277 16.8079C3.6963 15.2766 3.6963 10.687 3.78277 9.15737C3.85764 7.67194 4.19308 6.35571 5.28299 5.2742C6.3729 4.19271 7.68973 3.85075 9.17141 3.78004C10.7041 3.69368 15.2994 3.69368 16.8321 3.78004C18.3195 3.85481 19.6369 4.19444 20.7205 5.27827C21.804 6.36209 22.1499 7.6789 22.2207 9.16439C22.3072 10.6898 22.3072 15.2755 22.2207 16.8079Z" fill="white" fill-opacity="0.9"/>
  </g>
  <defs>
    <clipPath id="clip0_659_4850">
      <rect width="26" height="26" fill="white"/>
    </clipPath>
  </defs>
</svg>