<svg xmlns="http://www.w3.org/2000/svg" width="27" height="26" viewBox="0 0 27 26" fill="none">
  <g clip-path="url(#clip0_659_4853)">
    <path d="M22.9532 22.124H19.1009V16.0989C19.1009 14.6623 19.0751 12.8127 17.0972 12.8127C15.0907 12.8127 14.7837 14.3782 14.7837 15.9944V22.1237H10.9315V9.73371H14.6296V11.4269H14.6815C15.0515 10.7949 15.5864 10.275 16.2289 9.92255C16.8715 9.57017 17.5978 9.39831 18.3304 9.42552C22.235 9.42552 22.9548 11.9903 22.9548 15.3271L22.9532 22.124ZM6.58458 8.04019C5.34988 8.04039 4.34879 7.04093 4.34858 5.80788C4.34838 4.57483 5.34908 3.57506 6.58377 3.57486C7.81846 3.57456 8.81957 4.57402 8.81977 5.80707C8.81988 6.3992 8.58445 6.96712 8.16527 7.38592C7.7461 7.80471 7.17751 8.04005 6.58458 8.04019ZM8.51082 22.1242H4.65438V9.73371H8.51071L8.51082 22.1242ZM24.8737 0.00188977H2.71861C1.6715 -0.00987575 0.812785 0.827811 0.799988 1.87353V24.0914C0.812378 25.1377 1.67099 25.9762 2.7185 25.9652H24.8737C25.9235 25.9782 26.7854 25.1397 26.8 24.0914V1.8718C26.7851 0.824058 25.923 -0.0135271 24.8737 0.000165517" fill="white" fill-opacity="0.9"/>
  </g>
  <defs>
    <clipPath id="clip0_659_4853">
      <rect width="26" height="26" fill="white" transform="translate(0.799988)"/>
    </clipPath>
  </defs>
</svg>