<svg xmlns="http://www.w3.org/2000/svg" width="40" height="40" viewBox="0 0 40 40" fill="none">
  <path d="M15.8333 25.8333L27.4999 18.3333L15.8333 10.8333V25.8333ZM13.3333 35V31.6667H6.66659C5.74992 31.6667 4.96547 31.3406 4.31325 30.6883C3.66103 30.0361 3.33436 29.2511 3.33325 28.3333V8.33333C3.33325 7.41667 3.65992 6.63222 4.31325 5.98C4.96659 5.32778 5.75103 5.00111 6.66659 5H33.3333C34.2499 5 35.0349 5.32667 35.6883 5.98C36.3416 6.63333 36.6677 7.41778 36.6666 8.33333V28.3333C36.6666 29.25 36.3405 30.035 35.6883 30.6883C35.036 31.3417 34.251 31.6678 33.3333 31.6667H26.6666V35H13.3333Z" fill="white"/>
</svg>