<svg xmlns="http://www.w3.org/2000/svg" width="16" height="16" viewBox="0 0 16 16" fill="none">
  <mask id="mask0_653_2145" style="mask-type:alpha" maskUnits="userSpaceOnUse" x="0" y="0" width="16" height="16">
    <rect width="16" height="16" fill="#D9D9D9"/>
  </mask>
  <g mask="url(#mask0_653_2145)">
    <path d="M7.36671 9.66667L10.1334 7.9C10.3334 7.76667 10.4334 7.57778 10.4334 7.33333C10.4334 7.08889 10.3334 6.9 10.1334 6.76667L7.36671 5C7.14449 4.85556 6.91671 4.84444 6.68337 4.96667C6.45004 5.08889 6.33337 5.28333 6.33337 5.55V9.11667C6.33337 9.38333 6.45004 9.57778 6.68337 9.7C6.91671 9.82222 7.14449 9.81111 7.36671 9.66667ZM2.66671 12.6667C2.30004 12.6667 1.98615 12.5361 1.72504 12.275C1.46393 12.0139 1.33337 11.7 1.33337 11.3333V3.33333C1.33337 2.96667 1.46393 2.65278 1.72504 2.39167C1.98615 2.13056 2.30004 2 2.66671 2H13.3334C13.7 2 14.0139 2.13056 14.275 2.39167C14.5362 2.65278 14.6667 2.96667 14.6667 3.33333V11.3333C14.6667 11.7 14.5362 12.0139 14.275 12.275C14.0139 12.5361 13.7 12.6667 13.3334 12.6667H10.6667V13.3333C10.6667 13.5222 10.6028 13.6806 10.475 13.8083C10.3473 13.9361 10.1889 14 10 14H6.00004C5.81115 14 5.65282 13.9361 5.52504 13.8083C5.39726 13.6806 5.33337 13.5222 5.33337 13.3333V12.6667H2.66671Z" fill="#1C1B1F"/>
  </g>
</svg>