<svg xmlns="http://www.w3.org/2000/svg" width="24" height="25" viewBox="0 0 24 25" fill="none">
  <mask id="mask0_653_2120" style="mask-type:alpha" maskUnits="userSpaceOnUse" x="0" y="0" width="24" height="25">
    <rect y="0.397705" width="24" height="24" fill="#D9D9D9"/>
  </mask>
  <g mask="url(#mask0_653_2120)">
    <path d="M4 18.3977C3.71667 18.3977 3.47917 18.3019 3.2875 18.1102C3.09583 17.9185 3 17.681 3 17.3977C3 17.1144 3.09583 16.8769 3.2875 16.6852C3.47917 16.4935 3.71667 16.3977 4 16.3977H20C20.2833 16.3977 20.5208 16.4935 20.7125 16.6852C20.9042 16.8769 21 17.1144 21 17.3977C21 17.681 20.9042 17.9185 20.7125 18.1102C20.5208 18.3019 20.2833 18.3977 20 18.3977H4ZM4 13.3977C3.71667 13.3977 3.47917 13.3019 3.2875 13.1102C3.09583 12.9185 3 12.681 3 12.3977C3 12.1144 3.09583 11.8769 3.2875 11.6852C3.47917 11.4935 3.71667 11.3977 4 11.3977H20C20.2833 11.3977 20.5208 11.4935 20.7125 11.6852C20.9042 11.8769 21 12.1144 21 12.3977C21 12.681 20.9042 12.9185 20.7125 13.1102C20.5208 13.3019 20.2833 13.3977 20 13.3977H4ZM4 8.39771C3.71667 8.39771 3.47917 8.30187 3.2875 8.11021C3.09583 7.91854 3 7.68104 3 7.39771C3 7.11437 3.09583 6.87687 3.2875 6.68521C3.47917 6.49354 3.71667 6.39771 4 6.39771H20C20.2833 6.39771 20.5208 6.49354 20.7125 6.68521C20.9042 6.87687 21 7.11437 21 7.39771C21 7.68104 20.9042 7.91854 20.7125 8.11021C20.5208 8.30187 20.2833 8.39771 20 8.39771H4Z" fill="white"/>
  </g>
</svg>