<svg xmlns="http://www.w3.org/2000/svg" width="16" height="16" viewBox="0 0 16 16" fill="none">
  <mask id="mask0_19_1728" style="mask-type:alpha" maskUnits="userSpaceOnUse" x="0" y="0" width="16" height="16">
    <rect width="16" height="16" fill="#D9D9D9"/>
  </mask>
  <g mask="url(#mask0_19_1728)">
    <path d="M4.63333 5.36668C4.4 5.36668 4.23611 5.31946 4.14167 5.22502C4.04722 5.13057 4 4.96668 4 4.73335C4 4.28891 4.10556 3.87779 4.31667 3.50002C4.52778 3.12224 4.81111 2.81113 5.16667 2.56668L7.25 1.16668C7.47222 1.01113 7.72222 0.93335 8 0.93335C8.27778 0.93335 8.52778 1.01113 8.75 1.16668L10.8333 2.56668C11.1889 2.81113 11.4722 3.12224 11.6833 3.50002C11.8944 3.87779 12 4.28891 12 4.73335C12 4.96668 11.9528 5.13057 11.8583 5.22502C11.7639 5.31946 11.6 5.36668 11.3667 5.36668H4.63333ZM0.666667 12.6667V5.81668C0.466667 5.69446 0.305556 5.53613 0.183333 5.34168C0.0611111 5.14724 0 4.92224 0 4.66668C0 4.41113 0.133333 4.10002 0.4 3.73335C0.666667 3.36668 0.977778 3.01113 1.33333 2.66668C1.68889 3.01113 2 3.36668 2.26667 3.73335C2.53333 4.10002 2.66667 4.41113 2.66667 4.66668C2.66667 4.92224 2.60556 5.14724 2.48333 5.34168C2.36111 5.53613 2.2 5.69446 2 5.81668V8.66668H3.33333V7.33335C3.33333 7.05557 3.42222 6.78891 3.6 6.53335C3.77778 6.27779 4.03333 6.11113 4.36667 6.03335H11.6333C11.9667 6.11113 12.2222 6.27779 12.4 6.53335C12.5778 6.78891 12.6667 7.05557 12.6667 7.33335V8.66668H14V5.81668C13.8 5.69446 13.6389 5.53613 13.5167 5.34168C13.3944 5.14724 13.3333 4.92224 13.3333 4.66668C13.3333 4.41113 13.4667 4.10002 13.7333 3.73335C14 3.36668 14.3111 3.01113 14.6667 2.66668C15.0222 3.01113 15.3333 3.36668 15.6 3.73335C15.8667 4.10002 16 4.41113 16 4.66668C16 4.92224 15.9389 5.14724 15.8167 5.34168C15.6944 5.53613 15.5333 5.69446 15.3333 5.81668V12.6667C15.3333 13.0333 15.2028 13.3472 14.9417 13.6083C14.6806 13.8695 14.3667 14 14 14H10C9.81111 14 9.65278 13.9361 9.525 13.8083C9.39722 13.6806 9.33333 13.5222 9.33333 13.3333V11.3333C9.33333 10.9667 9.20278 10.6528 8.94167 10.3917C8.68056 10.1306 8.36667 10 8 10C7.63333 10 7.31945 10.1306 7.05833 10.3917C6.79722 10.6528 6.66667 10.9667 6.66667 11.3333V13.3333C6.66667 13.5222 6.60278 13.6806 6.475 13.8083C6.34722 13.9361 6.18889 14 6 14H2C1.63333 14 1.31944 13.8695 1.05833 13.6083C0.797222 13.3472 0.666667 13.0333 0.666667 12.6667Z" fill="#00A053"/>
  </g>
</svg>