<svg xmlns="http://www.w3.org/2000/svg" width="16" height="17" viewBox="0 0 16 17" fill="none">
  <mask id="mask0_659_4826" style="mask-type:alpha" maskUnits="userSpaceOnUse" x="0" y="0" width="16" height="17">
    <rect y="0.86499" width="16" height="16" fill="#D9D9D9"/>
  </mask>
  <g mask="url(#mask0_659_4826)">
    <path d="M13.3 14.865C11.9111 14.865 10.5389 14.5622 9.18333 13.9567C7.82778 13.3511 6.59444 12.4928 5.48333 11.3817C4.37222 10.2705 3.51389 9.03721 2.90833 7.68166C2.30278 6.3261 2 4.95388 2 3.56499C2 3.36499 2.06667 3.19832 2.2 3.06499C2.33333 2.93166 2.5 2.86499 2.7 2.86499H5.4C5.55556 2.86499 5.69444 2.91777 5.81667 3.02332C5.93889 3.12888 6.01111 3.25388 6.03333 3.39832L6.46667 5.73166C6.48889 5.90943 6.48333 6.05943 6.45 6.18166C6.41667 6.30388 6.35556 6.40944 6.26667 6.49832L4.65 8.13166C4.87222 8.54277 5.13611 8.93999 5.44167 9.32332C5.74722 9.70666 6.08333 10.0761 6.45 10.4317C6.79444 10.7761 7.15556 11.0955 7.53333 11.39C7.91111 11.6844 8.31111 11.9539 8.73333 12.1983L10.3 10.6317C10.4 10.5317 10.5306 10.4567 10.6917 10.4067C10.8528 10.3567 11.0111 10.3428 11.1667 10.365L13.4667 10.8317C13.6222 10.8761 13.75 10.9567 13.85 11.0733C13.95 11.19 14 11.3205 14 11.465V14.165C14 14.365 13.9333 14.5317 13.8 14.665C13.6667 14.7983 13.5 14.865 13.3 14.865Z" fill="white"/>
  </g>
</svg>