<svg xmlns="http://www.w3.org/2000/svg" width="60" height="60" viewBox="0 0 60 60" fill="none">
  <g clip-path="url(#clip0_48_19253)">
    <mask id="mask0_48_19253" style="mask-type:luminance" maskUnits="userSpaceOnUse" x="0" y="0" width="60" height="60">
      <path d="M0 0H60V60H0V0Z" fill="white"/>
    </mask>
    <g mask="url(#mask0_48_19253)">
      <path d="M29.785 0C14.55 0 15.5 6.64 15.5 6.64L15.5175 13.52H30.0525V15.585H9.75C9.75 15.585 0 14.4725 0 29.9225C0 45.3725 8.5075 44.8225 8.5075 44.8225H13.5825V37.655C13.5825 37.655 13.31 29.105 21.9575 29.105H36.3725C36.3725 29.105 44.4725 29.235 44.4725 21.235V8.005C44.4725 8.005 45.7025 0 29.785 0ZM21.77 4.625C23.215 4.625 24.385 5.8 24.385 7.255C24.385 8.7075 23.215 9.8825 21.77 9.8825C20.3225 9.8825 19.155 8.7075 19.155 7.255C19.155 5.8 20.3225 4.625 21.77 4.625Z" fill="white"/>
      <path d="M30.2176 60.0002C45.4476 60.0002 44.4976 53.3602 44.4976 53.3602L44.4801 46.4802H29.9451V44.4152H50.2526C50.2526 44.4152 60.0026 45.5277 60.0026 30.0777C60.0026 14.6277 51.4926 15.1777 51.4926 15.1777H46.4176V22.3452C46.4176 22.3452 46.6901 30.8952 38.0426 30.8952H23.6301C23.6301 30.8952 15.5301 30.7652 15.5301 38.7652V51.9952C15.5301 51.9952 14.3001 60.0002 30.2176 60.0002ZM38.2326 55.3752C36.7851 55.3752 35.6176 54.2002 35.6176 52.7452C35.6176 51.2927 36.7851 50.1177 38.2326 50.1177C39.6776 50.1177 40.8476 51.2927 40.8476 52.7452C40.8476 54.2002 39.6776 55.3752 38.2326 55.3752Z" fill="white"/>
    </g>
  </g>
  <defs>
    <clipPath id="clip0_48_19253">
      <rect width="60" height="60" fill="white"/>
    </clipPath>
  </defs>
</svg>