<svg xmlns="http://www.w3.org/2000/svg" width="40" height="40" viewBox="0 0 40 40" fill="none">
  <path d="M15.0001 8.3335C16.7682 8.3335 18.4639 9.03587 19.7141 10.2861C20.9644 11.5364 21.6667 13.2321 21.6667 15.0002C21.6667 16.7683 20.9644 18.464 19.7141 19.7142C18.4639 20.9645 16.7682 21.6668 15.0001 21.6668C13.232 21.6668 11.5363 20.9645 10.286 19.7142C9.03579 18.464 8.33341 16.7683 8.33341 15.0002C8.33341 13.2321 9.03579 11.5364 10.286 10.2861C11.5363 9.03587 13.232 8.3335 15.0001 8.3335ZM15.0001 25.0002C19.4501 25.0002 28.3334 27.2335 28.3334 31.6668V35.0002H1.66675V31.6668C1.66675 27.2335 10.5501 25.0002 15.0001 25.0002ZM27.9334 8.9335C31.3001 12.6002 31.3001 17.6835 27.9334 21.0502L25.1334 18.2335C26.5334 16.2668 26.5334 13.7168 25.1334 11.7502L27.9334 8.9335ZM33.4501 3.3335C40.0001 10.0835 39.9501 20.1835 33.4501 26.6668L30.7334 23.9502C35.3501 18.6502 35.3501 11.0835 30.7334 6.05016L33.4501 3.3335Z" fill="white"/>
</svg>