<svg xmlns="http://www.w3.org/2000/svg" width="40" height="40" viewBox="0 0 40 40" fill="none">
  <mask id="mask0_766_3804" style="mask-type:luminance" maskUnits="userSpaceOnUse" x="3" y="2" width="35" height="36">
    <path d="M31.6667 17.4998L35.8333 24.9998L31.6667 25.8332V30.8332H29.1667L24.1667 29.9998L23.3333 35.8332H10.8333L9.16667 27.1823C6.6 24.7523 5 21.3132 5 17.4998C5 10.1357 10.9692 4.1665 18.3333 4.1665C25.6975 4.1665 31.6667 10.1357 31.6667 17.4998Z" fill="white" stroke="white" stroke-width="3.33333" stroke-linecap="round" stroke-linejoin="round"/>
    <path d="M14.1667 15.8332C14.1667 15.0091 14.4111 14.2035 14.869 13.5183C15.3268 12.8331 15.9775 12.299 16.7389 11.9837C17.5003 11.6683 18.338 11.5858 19.1463 11.7466C19.9545 11.9073 20.697 12.3042 21.2797 12.8869C21.8624 13.4696 22.2592 14.212 22.42 15.0203C22.5808 15.8286 22.4983 16.6663 22.1829 17.4277C21.8675 18.189 21.3335 18.8398 20.6483 19.2976C19.9631 19.7555 19.1575 19.9998 18.3334 19.9998V22.4998M18.3334 27.4998V28.3332" stroke="black" stroke-width="3.33333" stroke-linecap="round" stroke-linejoin="round"/>
  </mask>
  <g mask="url(#mask0_766_3804)">
    <path d="M0 0H40V40H0V0Z" fill="white"/>
  </g>
</svg>