<svg xmlns="http://www.w3.org/2000/svg" width="16" height="16" viewBox="0 0 16 16" fill="none">
  <mask id="mask0_653_2170" style="mask-type:alpha" maskUnits="userSpaceOnUse" x="0" y="0" width="16" height="16">
    <rect width="16" height="16" fill="#D9D9D9"/>
  </mask>
  <g mask="url(#mask0_653_2170)">
    <path d="M1.33337 7.99992C1.33337 7.0777 1.50837 6.21103 1.85837 5.39992C2.20837 4.58881 2.68337 3.88325 3.28337 3.28325C3.88337 2.68325 4.58893 2.20825 5.40004 1.85825C6.21115 1.50825 7.07782 1.33325 8.00004 1.33325C9.51115 1.33325 10.85 1.77492 12.0167 2.65825C13.1834 3.54159 13.9723 4.67214 14.3834 6.04992C14.4389 6.20547 14.4084 6.34992 14.2917 6.48325C14.175 6.61659 14.0278 6.68325 13.85 6.68325C13.6612 6.68325 13.4862 6.63325 13.325 6.53325C13.1639 6.43325 13.05 6.29436 12.9834 6.11659C12.7278 5.4277 12.3417 4.81659 11.825 4.28325C11.3084 3.74992 10.7 3.34436 10 3.06659V3.33325C10 3.69992 9.86948 4.01381 9.60837 4.27492C9.34726 4.53603 9.03337 4.66659 8.66671 4.66659H7.33337V5.99992C7.33337 6.18881 7.26948 6.34714 7.14171 6.47492C7.01393 6.6027 6.8556 6.66659 6.66671 6.66659H5.33337V7.99992H6.00004C6.18893 7.99992 6.34726 8.06381 6.47504 8.19159C6.60282 8.31936 6.66671 8.4777 6.66671 8.66659V9.99992H6.00004L2.80004 6.79992C2.76671 6.99992 2.73615 7.19992 2.70837 7.39992C2.6806 7.59992 2.66671 7.79992 2.66671 7.99992C2.66671 9.35547 3.11393 10.5388 4.00837 11.5499C4.90282 12.561 6.02782 13.1444 7.38337 13.2999C7.56115 13.3221 7.70837 13.3971 7.82504 13.5249C7.94171 13.6527 8.00004 13.811 8.00004 13.9999C8.00004 14.1888 7.93615 14.3471 7.80837 14.4749C7.6806 14.6027 7.52782 14.6555 7.35004 14.6333C5.65004 14.4666 4.22226 13.7555 3.06671 12.4999C1.91115 11.2444 1.33337 9.74436 1.33337 7.99992ZM13.6 13.8666L11.9334 12.1999C11.7 12.3333 11.45 12.4444 11.1834 12.5333C10.9167 12.6221 10.6334 12.6666 10.3334 12.6666C9.50004 12.6666 8.79171 12.3749 8.20837 11.7916C7.62504 11.2083 7.33337 10.4999 7.33337 9.66659C7.33337 8.83325 7.62504 8.12492 8.20837 7.54159C8.79171 6.95825 9.50004 6.66659 10.3334 6.66659C11.1667 6.66659 11.875 6.95825 12.4584 7.54159C13.0417 8.12492 13.3334 8.83325 13.3334 9.66659C13.3334 9.96659 13.2889 10.2499 13.2 10.5166C13.1112 10.7833 13 11.0333 12.8667 11.2666L14.5334 12.9333C14.6556 13.0555 14.7167 13.211 14.7167 13.3999C14.7167 13.5888 14.6556 13.7444 14.5334 13.8666C14.4112 13.9888 14.2556 14.0499 14.0667 14.0499C13.8778 14.0499 13.7223 13.9888 13.6 13.8666ZM10.3334 11.3333C10.8 11.3333 11.1945 11.1721 11.5167 10.8499C11.8389 10.5277 12 10.1333 12 9.66659C12 9.19992 11.8389 8.80547 11.5167 8.48325C11.1945 8.16103 10.8 7.99992 10.3334 7.99992C9.86671 7.99992 9.47226 8.16103 9.15004 8.48325C8.82782 8.80547 8.66671 9.19992 8.66671 9.66659C8.66671 10.1333 8.82782 10.5277 9.15004 10.8499C9.47226 11.1721 9.86671 11.3333 10.3334 11.3333Z" fill="#1C1B1F"/>
  </g>
</svg>