<svg xmlns="http://www.w3.org/2000/svg" width="27" height="26" viewBox="0 0 27 26" fill="none">
  <g clip-path="url(#clip0_659_4856)">
    <path d="M25.56 0H1.63998C1.06473 0 0.599976 0.46413 0.599976 1.03861V24.9267C0.599976 25.5012 1.06473 25.9653 1.63998 25.9653H25.56C26.1353 25.9653 26.6 25.5012 26.6 24.9267V1.03861C26.6 0.46413 26.1353 0 25.56 0ZM20.5972 9.40273C20.607 9.55526 20.607 9.71429 20.607 9.87003C20.607 14.6347 16.9735 20.1231 10.3338 20.1231C8.28623 20.1231 6.38823 19.5292 4.78923 18.5068C5.08173 18.5392 5.36123 18.5522 5.66023 18.5522C7.35023 18.5522 8.90373 17.981 10.142 17.0138C8.55598 16.9813 7.22348 15.9427 6.76848 14.5146C7.32423 14.5958 7.82473 14.5958 8.39673 14.4497C7.58008 14.2841 6.84607 13.8411 6.31938 13.1962C5.79269 12.5512 5.5058 11.7441 5.50748 10.9119V10.8665C5.98523 11.1359 6.54748 11.3014 7.13573 11.3241C6.64121 10.995 6.23567 10.5491 5.95504 10.0259C5.67441 9.50283 5.52737 8.91861 5.52698 8.32514C5.52698 7.65328 5.70248 7.03985 6.01773 6.50757C6.92415 7.62192 8.05525 8.53332 9.33745 9.18251C10.6197 9.83173 12.0244 10.2042 13.4603 10.2758C12.95 7.82531 14.783 5.8422 16.9865 5.8422C18.0265 5.8422 18.9625 6.27712 19.6222 6.97818C20.438 6.82564 21.218 6.52054 21.9135 6.11159C21.6437 6.94573 21.0783 7.65004 20.3275 8.09469C21.0555 8.0168 21.7575 7.81557 22.4075 7.5332C21.9168 8.25373 21.3025 8.89313 20.5972 9.40273Z" fill="white" fill-opacity="0.9"/>
  </g>
  <defs>
    <clipPath id="clip0_659_4856">
      <rect width="26" height="26" fill="white" transform="translate(0.599976)"/>
    </clipPath>
  </defs>
</svg>