<svg xmlns="http://www.w3.org/2000/svg" width="40" height="40" viewBox="0 0 40 40" fill="none">
  <path d="M19.9999 6.25C18.3423 6.25 16.7526 6.90848 15.5805 8.08058C14.4084 9.25268 13.7499 10.8424 13.7499 12.5C13.7499 14.1576 14.4084 15.7473 15.5805 16.9194C16.7526 18.0915 18.3423 18.75 19.9999 18.75C21.6575 18.75 23.2472 18.0915 24.4193 16.9194C25.5914 15.7473 26.2499 14.1576 26.2499 12.5C26.2499 10.8424 25.5914 9.25268 24.4193 8.08058C23.2472 6.90848 21.6575 6.25 19.9999 6.25ZM13.3333 22.0833C11.6756 22.0833 10.0859 22.7418 8.91383 23.9139C7.74173 25.086 7.08325 26.6757 7.08325 28.3333V30.3133C7.08325 31.57 7.99325 32.64 9.23325 32.8417C16.3633 34.0067 23.6366 34.0067 30.7666 32.8417C31.3667 32.744 31.9125 32.436 32.3064 31.9728C32.7003 31.5096 32.9166 30.9214 32.9166 30.3133V28.3333C32.9166 26.6757 32.2581 25.086 31.086 23.9139C29.9139 22.7418 28.3242 22.0833 26.6666 22.0833H26.0999C25.7916 22.0833 25.4849 22.1333 25.1933 22.2267L23.7499 22.6983C21.3132 23.4937 18.6867 23.4937 16.2499 22.6983L14.8066 22.2267C14.5143 22.1316 14.2089 22.0832 13.9016 22.0833H13.3333Z" fill="white"/>
</svg>