<svg xmlns="http://www.w3.org/2000/svg" width="18" height="20" viewBox="0 0 18 20" fill="none">
  <g clip-path="url(#clip0_659_2481)">
    <path d="M0.386307 9.8914C0.385886 11.4152 0.784034 12.903 1.54111 14.2144L0.313904 18.6952L4.89936 17.4929C6.16764 18.1833 7.58865 18.5451 9.03269 18.5452H9.03649C13.8035 18.5452 17.684 14.6661 17.686 9.89822C17.6869 7.58784 16.788 5.41531 15.1548 3.78082C13.5218 2.14647 11.3501 1.24593 9.03613 1.24487C4.26854 1.24487 0.388346 5.12373 0.386378 9.8914" fill="url(#paint0_linear_659_2481)"/>
    <path d="M0.0774736 9.88855C0.0769815 11.4672 0.4894 13.0082 1.27347 14.3666L0.0022583 19.0079L4.75214 17.7625C6.06088 18.4761 7.5344 18.8523 9.03378 18.8529H9.03765C13.9757 18.8529 17.9956 14.8343 17.9977 9.89572C17.9985 7.50233 17.0673 5.2517 15.3757 3.55866C13.6839 1.86582 11.4345 0.932869 9.03765 0.931885C4.09875 0.931885 0.0794418 4.94993 0.0774736 9.88855ZM2.9062 14.1327L2.72885 13.8511C1.9833 12.6657 1.58979 11.2958 1.59035 9.88911C1.5919 5.78425 4.93258 2.44463 9.04046 2.44463C11.0298 2.44547 12.8994 3.22096 14.3055 4.62798C15.7116 6.03514 16.4854 7.90568 16.4849 9.89516C16.483 14 13.1423 17.3401 9.03765 17.3401H9.0347C7.69819 17.3394 6.3874 16.9804 5.24427 16.3022L4.97223 16.1408L2.15356 16.8798L2.9062 14.1327Z" fill="url(#paint1_linear_659_2481)"/>
    <path d="M6.79826 6.14399C6.63054 5.77122 6.45403 5.7637 6.29453 5.75716C6.16392 5.75154 6.01462 5.75196 5.86545 5.75196C5.71614 5.75196 5.47356 5.80813 5.26851 6.03201C5.06325 6.25611 4.48486 6.79766 4.48486 7.89911C4.48486 9.00063 5.28714 10.0651 5.39898 10.2146C5.51095 10.3639 6.94778 12.6965 9.22335 13.5939C11.1146 14.3396 11.4994 14.1913 11.9099 14.1539C12.3204 14.1167 13.2345 13.6125 13.421 13.0897C13.6076 12.567 13.6076 12.119 13.5517 12.0253C13.4957 11.9321 13.3464 11.876 13.1225 11.7641C12.8986 11.6521 11.7979 11.1105 11.5927 11.0358C11.3874 10.9611 11.2382 10.9239 11.0889 11.1481C10.9396 11.3719 10.5109 11.876 10.3802 12.0253C10.2497 12.175 10.119 12.1936 9.89516 12.0816C9.67113 11.9693 8.95012 11.7332 8.0947 10.9706C7.42915 10.3771 6.97983 9.64432 6.84922 9.42015C6.71862 9.19633 6.83524 9.075 6.9475 8.96344C7.04809 8.86313 7.17145 8.70202 7.2835 8.57134C7.39513 8.44059 7.43239 8.34731 7.50704 8.198C7.58176 8.04856 7.54437 7.91781 7.48848 7.80583C7.43239 7.69385 6.99733 6.58664 6.79826 6.14399Z" fill="white"/>
  </g>
  <defs>
    <linearGradient id="paint0_linear_659_2481" x1="868.92" y1="1746.27" x2="868.92" y2="1.24487" gradientUnits="userSpaceOnUse">
      <stop stop-color="#1FAF38"/>
      <stop offset="1" stop-color="#60D669"/>
    </linearGradient>
    <linearGradient id="paint1_linear_659_2481" x1="899.774" y1="1808.54" x2="899.774" y2="0.931885" gradientUnits="userSpaceOnUse">
      <stop stop-color="#F9F9F9"/>
      <stop offset="1" stop-color="white"/>
    </linearGradient>
    <clipPath id="clip0_659_2481">
      <rect width="18" height="18.136" fill="white" transform="translate(0 0.931885)"/>
    </clipPath>
  </defs>
</svg>