<svg xmlns="http://www.w3.org/2000/svg" width="64" height="64" viewBox="0 0 64 64" fill="none">
  <mask id="mask0_847_2296" style="mask-type:alpha" maskUnits="userSpaceOnUse" x="0" y="0" width="64" height="64">
    <rect width="64" height="64" fill="#D9D9D9"/>
  </mask>
  <g mask="url(#mask0_847_2296)">
    <path d="M10.6668 56.0002C9.20016 56.0002 7.94461 55.4779 6.90016 54.4335C5.85572 53.3891 5.3335 52.1335 5.3335 50.6668V21.3335C5.3335 19.8668 5.85572 18.6113 6.90016 17.5668C7.94461 16.5224 9.20016 16.0002 10.6668 16.0002H21.3335V10.6668C21.3335 9.20016 21.8557 7.94461 22.9002 6.90016C23.9446 5.85572 25.2002 5.3335 26.6668 5.3335H37.3335C38.8002 5.3335 40.0557 5.85572 41.1002 6.90016C42.1446 7.94461 42.6668 9.20016 42.6668 10.6668V16.0002H53.3335C54.8002 16.0002 56.0557 16.5224 57.1002 17.5668C58.1446 18.6113 58.6668 19.8668 58.6668 21.3335V50.6668C58.6668 52.1335 58.1446 53.3891 57.1002 54.4335C56.0557 55.4779 54.8002 56.0002 53.3335 56.0002H10.6668ZM26.6668 16.0002H37.3335V10.6668H26.6668V16.0002Z" fill="#FF9500"/>
  </g>
</svg>