<svg xmlns="http://www.w3.org/2000/svg" width="16" height="16" viewBox="0 0 16 16" fill="none">
  <mask id="mask0_659_2405" style="mask-type:alpha" maskUnits="userSpaceOnUse" x="0" y="0" width="16" height="16">
    <rect width="16" height="16" fill="#D9D9D9"/>
  </mask>
  <g mask="url(#mask0_659_2405)">
    <path d="M6.66665 4.00004H9.33331V2.66671H6.66665V4.00004ZM12 15.3334C11.0778 15.3334 10.2916 15.0084 9.64165 14.3584C8.99165 13.7084 8.66665 12.9223 8.66665 12C8.66665 11.0778 8.99165 10.2917 9.64165 9.64171C10.2916 8.99171 11.0778 8.66671 12 8.66671C12.9222 8.66671 13.7083 8.99171 14.3583 9.64171C15.0083 10.2917 15.3333 11.0778 15.3333 12C15.3333 12.9223 15.0083 13.7084 14.3583 14.3584C13.7083 15.0084 12.9222 15.3334 12 15.3334ZM2.66665 14C2.29998 14 1.98609 13.8695 1.72498 13.6084C1.46387 13.3473 1.33331 13.0334 1.33331 12.6667V5.33337C1.33331 4.96671 1.46387 4.65282 1.72498 4.39171C1.98609 4.1306 2.29998 4.00004 2.66665 4.00004H5.33331V2.66671C5.33331 2.30004 5.46387 1.98615 5.72498 1.72504C5.98609 1.46393 6.29998 1.33337 6.66665 1.33337H9.33331C9.69998 1.33337 10.0139 1.46393 10.275 1.72504C10.5361 1.98615 10.6666 2.30004 10.6666 2.66671V4.00004H13.3333C13.7 4.00004 14.0139 4.1306 14.275 4.39171C14.5361 4.65282 14.6666 4.96671 14.6666 5.33337V8.18337C14.2778 7.9056 13.8555 7.69449 13.4 7.55004C12.9444 7.4056 12.4778 7.33337 12 7.33337C10.7111 7.33337 9.61109 7.78893 8.69998 8.70004C7.78887 9.61115 7.33331 10.7112 7.33331 12C7.33331 12.3445 7.36942 12.6862 7.44165 13.025C7.51387 13.3639 7.62776 13.6889 7.78331 14H2.66665ZM11.6666 12.7334L10.7 11.7667C10.6333 11.7 10.5555 11.6667 10.4666 11.6667C10.3778 11.6667 10.3 11.7 10.2333 11.7667C10.1666 11.8334 10.1333 11.9112 10.1333 12C10.1333 12.0889 10.1666 12.1667 10.2333 12.2334L11.5333 13.5334C11.6666 13.6667 11.8222 13.7334 12 13.7334C12.1778 13.7334 12.3333 13.6667 12.4666 13.5334L13.7666 12.2334C13.8333 12.1667 13.8666 12.0889 13.8666 12C13.8666 11.9112 13.8333 11.8334 13.7666 11.7667C13.7 11.7 13.6222 11.6667 13.5333 11.6667C13.4444 11.6667 13.3666 11.7 13.3 11.7667L12.3333 12.7334V10.3334C12.3333 10.2445 12.3 10.1667 12.2333 10.1C12.1666 10.0334 12.0889 10 12 10C11.9111 10 11.8333 10.0334 11.7666 10.1C11.7 10.1667 11.6666 10.2445 11.6666 10.3334V12.7334Z" fill="#FF9500"/>
  </g>
</svg>