<svg xmlns="http://www.w3.org/2000/svg" width="16" height="16" viewBox="0 0 16 16" fill="none">
  <mask id="mask0_653_2150" style="mask-type:alpha" maskUnits="userSpaceOnUse" x="0" y="0" width="16" height="16">
    <rect width="16" height="16" fill="#D9D9D9"/>
  </mask>
  <g mask="url(#mask0_653_2150)">
    <path d="M6.66671 3.99992H9.33337V2.66659H6.66671V3.99992ZM12 15.3333C11.0778 15.3333 10.2917 15.0083 9.64171 14.3583C8.99171 13.7083 8.66671 12.9221 8.66671 11.9999C8.66671 11.0777 8.99171 10.2916 9.64171 9.64159C10.2917 8.99159 11.0778 8.66659 12 8.66659C12.9223 8.66659 13.7084 8.99159 14.3584 9.64159C15.0084 10.2916 15.3334 11.0777 15.3334 11.9999C15.3334 12.9221 15.0084 13.7083 14.3584 14.3583C13.7084 15.0083 12.9223 15.3333 12 15.3333ZM2.66671 13.9999C2.30004 13.9999 1.98615 13.8694 1.72504 13.6083C1.46393 13.3471 1.33337 13.0333 1.33337 12.6666V5.33325C1.33337 4.96659 1.46393 4.6527 1.72504 4.39159C1.98615 4.13047 2.30004 3.99992 2.66671 3.99992H5.33337V2.66659C5.33337 2.29992 5.46393 1.98603 5.72504 1.72492C5.98615 1.46381 6.30004 1.33325 6.66671 1.33325H9.33337C9.70004 1.33325 10.0139 1.46381 10.275 1.72492C10.5362 1.98603 10.6667 2.29992 10.6667 2.66659V3.99992H13.3334C13.7 3.99992 14.0139 4.13047 14.275 4.39159C14.5362 4.6527 14.6667 4.96659 14.6667 5.33325V8.18325C14.2778 7.90547 13.8556 7.69436 13.4 7.54992C12.9445 7.40547 12.4778 7.33325 12 7.33325C10.7112 7.33325 9.61115 7.78881 8.70004 8.69992C7.78893 9.61103 7.33337 10.711 7.33337 11.9999C7.33337 12.3444 7.36949 12.686 7.44171 13.0249C7.51393 13.3638 7.62782 13.6888 7.78337 13.9999H2.66671ZM11.6667 12.7333L10.7 11.7666C10.6334 11.6999 10.5556 11.6666 10.4667 11.6666C10.3778 11.6666 10.3 11.6999 10.2334 11.7666C10.1667 11.8333 10.1334 11.911 10.1334 11.9999C10.1334 12.0888 10.1667 12.1666 10.2334 12.2333L11.5334 13.5333C11.6667 13.6666 11.8223 13.7333 12 13.7333C12.1778 13.7333 12.3334 13.6666 12.4667 13.5333L13.7667 12.2333C13.8334 12.1666 13.8667 12.0888 13.8667 11.9999C13.8667 11.911 13.8334 11.8333 13.7667 11.7666C13.7 11.6999 13.6223 11.6666 13.5334 11.6666C13.4445 11.6666 13.3667 11.6999 13.3 11.7666L12.3334 12.7333V10.3333C12.3334 10.2444 12.3 10.1666 12.2334 10.0999C12.1667 10.0333 12.0889 9.99992 12 9.99992C11.9112 9.99992 11.8334 10.0333 11.7667 10.0999C11.7 10.1666 11.6667 10.2444 11.6667 10.3333V12.7333Z" fill="#1C1B1F"/>
  </g>
</svg>