<svg xmlns="http://www.w3.org/2000/svg" width="16" height="16" viewBox="0 0 16 16" fill="none">
  <mask id="mask0_653_2155" style="mask-type:alpha" maskUnits="userSpaceOnUse" x="0" y="0" width="16" height="16">
    <rect width="16" height="16" fill="#D9D9D9"/>
  </mask>
  <g mask="url(#mask0_653_2155)">
    <path d="M6.66671 3.99992H9.33337V2.66659H6.66671V3.99992ZM12 15.3333C11.0778 15.3333 10.2917 15.0083 9.64171 14.3583C8.99171 13.7083 8.66671 12.9221 8.66671 11.9999C8.66671 11.0777 8.99171 10.2916 9.64171 9.64159C10.2917 8.99159 11.0778 8.66659 12 8.66659C12.9223 8.66659 13.7084 8.99159 14.3584 9.64159C15.0084 10.2916 15.3334 11.0777 15.3334 11.9999C15.3334 12.9221 15.0084 13.7083 14.3584 14.3583C13.7084 15.0083 12.9223 15.3333 12 15.3333ZM2.66671 13.9999C2.30004 13.9999 1.98615 13.8694 1.72504 13.6083C1.46393 13.3471 1.33337 13.0333 1.33337 12.6666V5.33325C1.33337 4.96659 1.46393 4.6527 1.72504 4.39159C1.98615 4.13047 2.30004 3.99992 2.66671 3.99992H5.33337V2.66659C5.33337 2.29992 5.46393 1.98603 5.72504 1.72492C5.98615 1.46381 6.30004 1.33325 6.66671 1.33325H9.33337C9.70004 1.33325 10.0139 1.46381 10.275 1.72492C10.5362 1.98603 10.6667 2.29992 10.6667 2.66659V3.99992H13.3334C13.7 3.99992 14.0139 4.13047 14.275 4.39159C14.5362 4.6527 14.6667 4.96659 14.6667 5.33325V8.18325C14.2778 7.90547 13.8556 7.69436 13.4 7.54992C12.9445 7.40547 12.4778 7.33325 12 7.33325C10.7112 7.33325 9.61115 7.78881 8.70004 8.69992C7.78893 9.61103 7.33337 10.711 7.33337 11.9999C7.33337 12.3444 7.36949 12.686 7.44171 13.0249C7.51393 13.3638 7.62782 13.6888 7.78337 13.9999H2.66671ZM12.3334 11.8666V10.3333C12.3334 10.2444 12.3 10.1666 12.2334 10.0999C12.1667 10.0333 12.0889 9.99992 12 9.99992C11.9112 9.99992 11.8334 10.0333 11.7667 10.0999C11.7 10.1666 11.6667 10.2444 11.6667 10.3333V11.8499C11.6667 11.9388 11.6834 12.0249 11.7167 12.1083C11.75 12.1916 11.8 12.2666 11.8667 12.3333L12.8667 13.3333C12.9334 13.3999 13.0112 13.4333 13.1 13.4333C13.1889 13.4333 13.2667 13.3999 13.3334 13.3333C13.4 13.2666 13.4334 13.1888 13.4334 13.0999C13.4334 13.011 13.4 12.9333 13.3334 12.8666L12.3334 11.8666Z" fill="#1C1B1F"/>
  </g>
</svg>